<?xml version="1.0" encoding="utf-8"?>
<!-- Generator: Adobe Illustrator 25.2.0, SVG Export Plug-In . SVG Version: 6.00 Build 0)  -->
<svg version="1.1" id="Layer_1" xmlns="http://www.w3.org/2000/svg" xmlns:xlink="http://www.w3.org/1999/xlink" x="0px" y="0px"
	 viewBox="0 0 1080 1080" style="enable-background:new 0 0 1080 1080;" xml:space="preserve">
<style type="text/css">
	.st0{fill:#FFBB85;stroke:#231F20;stroke-width:16;stroke-miterlimit:10;}
	.st1{fill:#538BC1;stroke:#231F20;stroke-width:17;stroke-miterlimit:10;}
	.st2{fill:#F5A86C;}
	.st3{fill:#355977;}
	.st4{fill:none;stroke:#0F4378;stroke-width:6;stroke-miterlimit:10;}
	.st5{fill:#0F4378;}
	.st6{fill:#1B4EA1;}
	.st7{fill:#9E9E9E;}
	.st8{fill:#CECECE;}
	.st9{fill:#282828;}
	.st10{fill:#707070;}
	.st11{fill:#FAB400;}
	.st12{fill:#DC9600;}
	.st13{fill:#D2AA82;}
	.st14{fill:#707789;}
	.st15{fill:#525763;}
	.st16{fill:#F0F0F0;}
	.st17{fill:#CCEFFF;}
	.st18{fill:#949DB2;}
	.st19{fill:#FFFFFF;}
	.st20{fill:#2A65A0;}
	.st21{fill:#D1D3D4;}
	.st22{fill:#538BC1;}
	.st23{fill:#EFEDEF;}
	.st24{fill:#7F8B9A;}
	.st25{fill:#A8B9CC;}
	.st26{fill:#F2F2F2;}
	.st27{fill-rule:evenodd;clip-rule:evenodd;fill:#538BC1;}
	.st28{fill-rule:evenodd;clip-rule:evenodd;fill:#235587;}
	.st29{fill:#8AC9FE;}
	.st30{fill:#F7C75C;}
	.st31{fill:#9FABBF;}
	.st32{fill:#F3F3F3;}
	.st33{fill:#E4E4E4;}
	.st34{fill:#F5F5F5;}
	.st35{fill:#5D9CEC;}
	.st36{fill:#E6E9ED;}
	.st37{fill:#87BCF4;}
	.st38{fill:#48CFAD;}
	.st39{fill:#A0D468;}
	.st40{fill:#CCD1D9;}
	.st41{fill:#F6BB42;}
	.st42{fill:#FFCE54;}
	.st43{fill:#4A89DC;}
	.st44{fill:#AAB2BD;}
	.st45{fill:#1C4466;}
	.st46{fill:#0F4378;stroke:#0F4378;stroke-miterlimit:10;}
	.st47{fill:#E6F9FF;}
	.st48{fill:#B8CBD9;}
	.st49{fill:#E8EFF4;}
	.st50{fill:#0A2D49;}
	.st51{fill:#838587;}
	.st52{fill:#666768;}
	.st53{fill:#EDF5FF;}
	.st54{fill:#D5E8FE;}
	.st55{fill:#E2E2E2;}
	.st56{fill:#58595B;}
	.st57{fill:none;stroke:#0F4378;stroke-miterlimit:10;}
	.st58{fill:#092F4F;stroke:#0F4378;stroke-miterlimit:10;}
	.st59{opacity:0.49;}
	.st60{fill:#CE8F02;}
	.st61{fill:#0B3456;stroke:#0F4378;stroke-miterlimit:10;}
	.st62{fill:none;stroke:#0F4378;stroke-width:12;stroke-miterlimit:10;}
	.st63{fill:#538BC1;stroke:#0F4378;stroke-width:12;stroke-miterlimit:10;}
	.st64{fill:#FAB400;stroke:#0F4378;stroke-width:12;stroke-miterlimit:10;}
	.st65{fill:#FF321D;stroke:#0F4378;stroke-width:12;stroke-miterlimit:10;}
	.st66{fill:#538BC1;stroke:#231F20;stroke-width:5;stroke-miterlimit:10;}
	.st67{fill:#CCEFFF;stroke:#231F20;stroke-width:5;stroke-miterlimit:10;}
	.st68{fill:none;stroke:#231F20;stroke-width:5;stroke-miterlimit:10;}
	.st69{fill:#636363;}
	.st70{fill:none;stroke:#0F4378;stroke-width:3;stroke-miterlimit:10;}
	.st71{fill:#235FB7;}
	.st72{fill:#235FB7;stroke:#231F20;stroke-width:6;stroke-miterlimit:10;}
	.st73{fill:none;stroke:#231F20;stroke-width:6;stroke-miterlimit:10;}
	.st74{fill:#235FB7;stroke:#58595B;stroke-width:6;stroke-miterlimit:10;}
	.st75{fill:none;stroke:#58595B;stroke-width:6;stroke-miterlimit:10;}
	.st76{fill:none;stroke:#0F4378;stroke-width:23;stroke-miterlimit:10;}
	.st77{fill:none;stroke:#0F4378;stroke-width:10;stroke-miterlimit:10;}
	.st78{fill:none;stroke:#0F4378;stroke-width:24;stroke-miterlimit:10;}
	.st79{fill:none;stroke:#0F4378;stroke-width:15;stroke-miterlimit:10;}
	.st80{fill:none;stroke:#0F4378;stroke-width:6;stroke-miterlimit:10;stroke-dasharray:12.0806,12.0806;}
	.st81{fill:none;stroke:#0F4378;stroke-width:6;stroke-miterlimit:10;stroke-dasharray:12.0738,12.0738;}
	.st82{fill:none;stroke:#0F4378;stroke-width:21;stroke-miterlimit:10;}
	.st83{fill:none;stroke:#0F4378;stroke-width:5;stroke-miterlimit:10;}
	.st84{fill:#70B6EF;}
	.st85{fill:none;stroke:#74A5CE;stroke-width:18;stroke-miterlimit:10;}
	.st86{fill:#74A5CE;}
	.st87{fill:none;stroke:#0F4378;stroke-width:18;stroke-miterlimit:10;}
	.st88{fill:#F0C419;}
	.st89{fill:#EDF4FC;}
	.st90{fill:#3A6587;}
	.st91{fill:#133970;}
	.st92{fill:#B3D5E0;}
	.st93{fill:#3D6A8E;}
	.st94{fill:#2488FF;}
	.st95{fill:#ACABB1;}
	.st96{fill:#898890;}
	.st97{fill:#0C3354;stroke:#0F4378;stroke-miterlimit:10;}
	.st98{fill:#538BC1;stroke:#231F20;stroke-width:8;stroke-miterlimit:10;}
	.st99{fill:none;stroke:#231F20;stroke-width:3;stroke-miterlimit:10;}
	.st100{fill:#231F20;}
	.st101{fill:#416D91;}
	.st102{fill:#E0E0E0;}
	.st103{fill:#C0C0C0;}
	.st104{fill:#0D385B;stroke:#0F4378;stroke-miterlimit:10;}
	.st105{fill:#538BC1;stroke:#0F4378;stroke-width:6;stroke-miterlimit:10;}
	.st106{fill:none;stroke:#0F4378;stroke-width:4;stroke-miterlimit:10;}
	.st107{fill:none;stroke:#0F4378;stroke-width:2;stroke-miterlimit:10;}
	.st108{fill:#FFFFFF;stroke:#0F4378;stroke-width:6;stroke-miterlimit:10;}
	.st109{fill:#538BC1;stroke:#0F4378;stroke-width:2;stroke-miterlimit:10;}
	.st110{fill:#0C3251;}
	.st111{fill:#231F20;stroke:#A7A9AC;stroke-miterlimit:10;}
	.st112{fill:#0F4378;stroke:#0F4378;stroke-width:4;stroke-miterlimit:10;}
	.st113{fill:#0C3251;stroke:#0F4378;stroke-width:3;stroke-miterlimit:10;}
	.st114{fill:#538BC1;stroke:#0F4378;stroke-width:3;stroke-miterlimit:10;}
	.st115{fill:none;stroke:#FFFFFF;stroke-width:0.5;stroke-miterlimit:10;}
	.st116{fill:#FFFFFF;stroke:#0F4378;stroke-width:2;stroke-miterlimit:10;}
	.st117{fill:#FAB400;stroke:#0F4378;stroke-width:6;stroke-miterlimit:10;}
	.st118{fill:none;stroke:#A7A9AC;stroke-miterlimit:10;}
	.st119{fill:#A7A9AC;}
	.st120{fill:none;stroke:#BABA3C;stroke-width:2;stroke-miterlimit:10;}
	.st121{fill:none;stroke:#494949;stroke-width:2;stroke-miterlimit:10;}
	.st122{fill:none;stroke:#58595B;stroke-width:3;stroke-miterlimit:10;}
	.st123{fill:none;stroke:#FF0000;stroke-width:2;stroke-miterlimit:10;}
	.st124{fill:none;stroke:#EFDB22;stroke-width:6;stroke-miterlimit:10;}
	.st125{fill:none;stroke:#4D5160;stroke-miterlimit:10;}
	.st126{fill:#4D5160;}
	.st127{opacity:0.6;}
	.st128{fill:none;stroke:#0F4378;stroke-miterlimit:10;stroke-dasharray:11.764,11.764;}
	.st129{fill:none;stroke:#0F4378;stroke-miterlimit:10;stroke-dasharray:11.9302,11.9302;}
	.st130{fill:none;stroke:#0F4378;stroke-miterlimit:10;stroke-dasharray:12.1802,12.1802;}
	.st131{fill:#538BC1;stroke:#0F4378;stroke-width:4;stroke-miterlimit:10;}
</style>
<g>
	<path class="st5" d="M674.87,152.66c-44.18,23.71-88.54,47.05-132.87,70.43l-66.61,34.9l-66.76,34.61
		c-22.27,11.52-44.38,23.39-66.54,35.15l-16.69,8.68c-5.6,2.83-11.17,5.7-16.78,8.49c-11.23,5.58-22.54,10.99-33.9,16.28
		c-22.72,10.54-45.59,20.75-68.68,30.54c-23.11,9.75-46.37,19.2-70.17,27.61c-0.55,0.19-1.15-0.09-1.35-0.64
		c-0.17-0.47,0.02-0.98,0.42-1.24c21.13-13.81,42.78-26.59,64.59-39.06c21.83-12.43,43.87-24.46,66.08-36.12
		c11.09-5.82,22.24-11.52,33.47-17.05c5.61-2.77,11.27-5.45,16.9-8.18l17-7.99c22.75-10.47,45.57-20.82,68.21-31.53l67.99-32.06
		l68.14-31.78c45.5-21.08,90.98-42.18,136.63-62.92c0.53-0.24,1.15-0.01,1.39,0.52C675.56,151.8,675.35,152.4,674.87,152.66z"/>
</g>
<g>
	<path class="st5" d="M947.72,167.46c0.59,1.56,1,2.76,1.42,3.98l0.55,1.66l0.41,1.38c0.12,0.43,0.43,1.23,0.66,1.9
		c0.1,0.3,0.16,0.51,0.13,0.55c-0.03,0.04-0.14-0.1-0.31-0.35c-0.34-0.5-0.88-1.42-1.6-2.68l-1.26-2.27l-1.77-3.3
		c-0.32-0.59-0.65-1.28-0.93-1.88l-1.55-3.41l-1.04-2.38c-0.57-1.34-0.97-2.33-1.16-2.9c-0.1-0.29-0.13-0.46-0.09-0.46
		c0.05,0,0.18,0.17,0.35,0.44c0.39,0.6,0.84,1.32,1.1,1.68l0.85,1.16l0.99,1.44c0.72,1.08,1.42,2.13,2.3,3.55
		C947.16,166.16,947.48,166.83,947.72,167.46z"/>
</g>
<g>
	<path class="st5" d="M268.32,501.27l49.69-26.5l49.78-26.34c33.19-17.56,66.47-34.92,99.71-52.34l49.97-25.91
		c16.65-8.64,33.32-17.27,49.89-26.1c16.59-8.79,33.11-17.71,49.81-26.27c16.69-8.59,33.58-16.77,50.61-24.67l2.47-1.15l2.17,0.06
		l0.01,0l-4.68,1.1c11.26-5.23,22.5-10.34,33.82-15.37c11.31-5.03,22.67-9.97,34.08-14.8c11.42-4.81,22.88-9.55,34.42-14.11
		c11.57-4.51,23.13-9.04,34.91-13.12c0.55-0.19,1.16,0.1,1.35,0.65c0.16,0.47-0.02,0.97-0.42,1.23c-10.39,6.89-21,13.33-31.6,19.78
		c-10.63,6.41-21.34,12.64-32.09,18.79c-10.76,6.14-21.57,12.17-32.43,18.11c-5.42,2.99-10.88,5.89-16.32,8.84l-16.36,8.71
		l-1.93,1.03l-2.75,0.08h-0.01l4.64-1.08c-16.61,8.74-33.35,17.2-50.3,25.25c-16.94,8.08-34.05,15.8-51.1,23.65
		c-17.07,7.81-34.03,15.83-51.02,23.83l-50.94,24.01c-34.03,15.86-68.03,31.77-102.11,47.5l-51.13,23.59l-51.21,23.43l-0.01,0
		c-0.53,0.24-1.15,0.01-1.39-0.52C267.62,502.12,267.83,501.53,268.32,501.27z"/>
</g>
<g>
	<path class="st5" d="M269.31,654.59c0.5,1.61,0.81,2.85,1.15,4.12l0.41,1.73c0.11,0.52,0.19,0.99,0.27,1.45
		c0.07,0.45,0.33,1.27,0.53,1.97c0.08,0.31,0.12,0.54,0.07,0.58c-0.05,0.05-0.19-0.07-0.38-0.31c-0.38-0.48-0.98-1.37-1.74-2.61
		l-0.61-1.01l-0.72-1.22l-1.84-3.26c-0.34-0.61-0.66-1.25-0.93-1.88l-1.48-3.44l-0.54-1.31l-0.43-1.1
		c-0.53-1.36-0.88-2.38-1.02-2.97c-0.07-0.3-0.09-0.48-0.02-0.49c0.07-0.01,0.22,0.15,0.42,0.41c0.43,0.57,0.93,1.28,1.24,1.61
		c0.32,0.34,0.64,0.69,0.99,1.09l1.13,1.38c0.81,1.04,1.6,2.04,2.58,3.41C268.8,653.29,269.11,653.94,269.31,654.59z"/>
</g>
<g>
	<path class="st5" d="M947.72,318.94l-6.81,3.64l-0.23,0.12l-0.34,0.01l-0.01,0l0.57-0.13c-44.01,23.57-88.17,46.82-132.35,70.05
		l-66.33,34.71l-66.45,34.45c-22.17,11.46-44.13,23.32-66.21,34.96c-11.05,5.8-22.16,11.48-33.33,17.03
		c-11.18,5.53-22.44,10.9-33.76,16.15c-22.63,10.5-45.43,20.66-68.43,30.42c-23.02,9.71-46.21,19.12-69.89,27.54l-0.02,0.01
		c-0.55,0.2-1.15-0.09-1.35-0.64c-0.17-0.47,0.02-0.98,0.42-1.24c21.03-13.74,42.58-26.44,64.27-38.85
		c21.72-12.36,43.64-24.33,65.73-35.96c11.04-5.81,22.14-11.5,33.32-17.04c11.19-5.51,22.44-10.9,33.75-16.16
		c22.65-10.49,45.4-20.75,67.96-31.42l67.71-31.93l67.83-31.68c45.27-21.01,90.54-42.02,135.98-62.71l0.31-0.14l0.26,0.01l0.01,0
		l-0.57,0.13l7.03-3.22c0.53-0.24,1.15-0.01,1.39,0.52C948.41,318.08,948.21,318.68,947.72,318.94z"/>
</g>
<g>
	<path class="st5" d="M674.87,605.93l-1.51,1l-0.11,0.07l-0.46,0.06l-0.01,0l0.57-0.13c-5.22,3.47-10.49,6.85-15.75,10.23
		l-15.88,9.98l-15.97,9.79l-16.1,9.53c-5.38,3.14-10.54,6.74-15.84,10.06c-5.29,3.33-10.86,6.09-16.72,8.27
		c-5.85,2.2-11.87,4.06-18.09,5.51c-6.25,1.4-12.62,2.54-19.52,2.61c-0.64,0.01-1.17-0.51-1.18-1.15c0-0.27,0.09-0.53,0.25-0.73
		c4.24-5.45,9.02-9.82,13.92-13.94c4.93-4.06,10.06-7.72,15.35-11.03c5.29-3.34,10.86-6.1,16.72-8.28c5.85-2.2,11.84-4.12,17.6-6.49
		l17.34-7.02l17.47-6.76l17.57-6.57c5.88-2.14,11.76-4.27,17.69-6.32l0.44-0.15l0.13,0.02l0.01,0l-0.57,0.13l1.71-0.58
		c0.55-0.19,1.15,0.11,1.34,0.66C675.44,605.17,675.26,605.67,674.87,605.93z"/>
</g>
<g>
	<path class="st5" d="M809.28,537.07c10.37-6.91,20.89-13.5,31.42-20.09l15.86-9.73c5.31-3.21,10.66-6.31,15.99-9.48
		c5.37-3.08,10.59-6.46,15.8-9.86c5.2-3.42,10.57-6.51,16.28-8.89c5.71-2.39,11.62-4.39,17.68-6.05c6.08-1.65,12.32-2.97,18.89-3.63
		l1.44-0.34l0.01,0l-1.44,0.34c0.91-0.09,1.83-0.17,2.75-0.22c0.94-0.03,1.86-0.1,2.82-0.09c0.65,0.01,1.17,0.54,1.16,1.19
		c0,0.26-0.09,0.49-0.23,0.69c-0.57,0.77-1.19,1.46-1.78,2.19c-0.61,0.7-1.22,1.39-1.85,2.06l-1.44,0.34l-0.01,0l1.44-0.34
		c-4.51,4.82-9.34,8.98-14.34,12.81c-5.01,3.81-10.18,7.29-15.54,10.38c-5.36,3.09-11.07,5.48-16.94,7.55
		c-5.86,2.08-11.71,4.19-17.42,6.58c-5.75,2.32-11.47,4.69-17.23,6.96l-17.36,6.71c-11.62,4.37-23.25,8.74-35.03,12.79
		c-0.55,0.19-1.16-0.1-1.35-0.66C808.71,537.84,808.89,537.34,809.28,537.07z"/>
</g>
<g>
	<path class="st5" d="M950.01,626.78c-10.81,7.22-21.81,14.04-32.79,20.92l-16.56,10.13l-16.7,9.85
		c-5.59,3.23-10.97,6.9-16.45,10.36c-5.48,3.46-11.23,6.37-17.28,8.67c-6.05,2.31-12.27,4.27-18.7,5.81
		c-6.45,1.5-13.03,2.73-20.15,2.86c-0.64,0.01-1.17-0.5-1.18-1.14c-0.01-0.28,0.09-0.54,0.25-0.75c4.43-5.57,9.4-10.07,14.5-14.28
		c5.13-4.17,10.46-7.92,15.96-11.33c5.5-3.42,11.3-6.23,17.37-8.48c6.07-2.26,12.25-4.3,18.21-6.79l17.96-7.3l18.1-7.02
		c12.12-4.56,24.24-9.15,36.52-13.39c0.55-0.19,1.16,0.1,1.35,0.65C950.59,626.01,950.4,626.51,950.01,626.78z"/>
</g>
<g>
	<path class="st5" d="M679.29,760.73c0.37,1.67,0.56,2.98,0.76,4.31l0.22,1.83c0.04,0.55,0.06,1.06,0.08,1.54
		c0.01,0.48,0.2,1.34,0.33,2.06c0.05,0.33,0.05,0.57-0.03,0.63c-0.08,0.07-0.25-0.04-0.47-0.26c-0.45-0.44-1.11-1.31-1.94-2.52
		l-0.66-0.99l-0.77-1.2l-0.92-1.5l-0.46-0.76l-0.56-0.95c-0.34-0.59-0.68-1.27-0.93-1.88l-0.42-1.02l-0.32-0.83l-0.64-1.64
		l-0.49-1.33l-0.39-1.13c-0.46-1.39-0.75-2.44-0.83-3.06c-0.04-0.31-0.02-0.51,0.08-0.54c0.1-0.03,0.29,0.12,0.52,0.36
		c0.5,0.54,1.06,1.21,1.44,1.51c0.38,0.3,0.77,0.63,1.18,1l1.32,1.28c0.94,0.97,1.86,1.91,2.97,3.22
		C678.83,759.4,679.14,760.06,679.29,760.73z"/>
</g>
<g>
	<path class="st5" d="M541.59,828.86c0.64,1.53,1.1,2.7,1.58,3.9l0.63,1.62l0.49,1.34c0.15,0.42,0.48,1.2,0.74,1.86
		c0.12,0.3,0.19,0.5,0.17,0.53c-0.01,0.03-0.11-0.11-0.27-0.37c-0.31-0.51-0.83-1.44-1.52-2.72l-1.22-2.29l-1.73-3.32
		c-0.29-0.56-0.66-1.31-0.93-1.88l-1.59-3.39l-1.08-2.36c-0.6-1.33-1.02-2.3-1.24-2.86c-0.11-0.28-0.16-0.44-0.13-0.44
		c0.03,0.01,0.15,0.19,0.32,0.46c0.36,0.61,0.79,1.35,1.03,1.72l0.77,1.2l0.91,1.48c0.67,1.11,1.32,2.18,2.15,3.62
		C541,827.56,541.33,828.25,541.59,828.86z"/>
</g>
<g>
	<path class="st5" d="M808.31,840.48c10.8-7.2,21.79-14.03,32.76-20.9l16.54-10.12l16.68-9.84c5.59-3.23,10.95-6.9,16.43-10.35
		c5.47-3.46,11.22-6.37,17.26-8.66c6.04-2.3,12.26-4.26,18.67-5.8c6.44-1.49,13.01-2.72,20.14-2.84c0.64-0.01,1.17,0.5,1.18,1.14
		c0,0.28-0.09,0.54-0.25,0.74c-4.43,5.56-9.39,10.06-14.49,14.27c-5.12,4.16-10.45,7.92-15.94,11.33
		c-5.49,3.42-11.29,6.22-17.35,8.47c-6.07,2.25-12.24,4.29-18.19,6.78l-17.94,7.29L845.72,829c-12.11,4.56-24.21,9.14-36.48,13.37
		c-0.55,0.19-1.16-0.1-1.35-0.66C807.74,841.25,807.92,840.74,808.31,840.48z"/>
</g>
<g>
	<path class="st5" d="M674.87,908.86c0.46,1.63,0.73,2.89,1.02,4.18l0.35,1.76c0.09,0.53,0.15,1.01,0.21,1.48
		c0.05,0.46,0.29,1.29,0.47,1.99c0.07,0.32,0.1,0.54,0.04,0.6c-0.06,0.05-0.2-0.07-0.41-0.3c-0.4-0.47-1.01-1.35-1.79-2.59
		l-0.63-1.01l-0.73-1.22l-0.88-1.52l-0.98-1.73c-0.33-0.59-0.67-1.28-0.93-1.88l-0.77-1.83l-0.67-1.63l-0.52-1.32l-0.42-1.11
		c-0.5-1.37-0.83-2.4-0.96-3c-0.06-0.3-0.07-0.49,0.01-0.5c0.08-0.02,0.24,0.14,0.45,0.39c0.45,0.56,0.97,1.26,1.3,1.58
		c0.33,0.33,0.68,0.67,1.04,1.07l1.18,1.35c0.85,1.02,1.68,2.01,2.69,3.36C674.37,907.55,674.68,908.2,674.87,908.86z"/>
</g>
<g>
	<path class="st5" d="M810.45,998.23c10.87-7.23,21.92-14.09,32.96-20.99l16.64-10.17l16.78-9.88c5.62-3.24,11.02-6.93,16.52-10.4
		c5.5-3.48,11.28-6.4,17.36-8.71c6.08-2.32,12.32-4.29,18.78-5.85c6.47-1.52,13.09-2.75,20.24-2.91c0.64-0.02,1.17,0.49,1.19,1.13
		c0.01,0.28-0.09,0.54-0.25,0.75c-4.45,5.6-9.45,10.09-14.58,14.33c-5.16,4.18-10.51,7.95-16.04,11.37
		c-5.53,3.43-11.35,6.25-17.46,8.52c-6.1,2.27-12.31,4.33-18.3,6.83l-18.04,7.34l-18.18,7.06c-12.18,4.59-24.34,9.21-36.68,13.46
		c-0.55,0.19-1.16-0.1-1.35-0.66C809.88,999,810.06,998.49,810.45,998.23z"/>
</g>
<g>
	<path class="st5" d="M948.31,166.52l1.17,47.83l1.01,47.83l2.01,95.65l1.73,95.65l1.42,95.65c0.45,31.88,1.28,63.77,2,95.65
		c0.66,31.88,0.73,63.77,0.1,95.65c-0.61,31.88-1.62,63.77-3.08,95.65c-1.51,31.88-3.36,63.77-6.37,95.65
		c-0.05,0.58-0.57,1.01-1.15,0.95c-0.51-0.05-0.9-0.46-0.95-0.95c-3.01-31.88-4.87-63.77-6.37-95.65
		c-1.46-31.88-2.46-63.77-3.08-95.65c-0.63-31.88-0.55-63.77,0.1-95.65c0.71-31.88,1.55-63.77,2-95.65l1.42-95.65l1.73-95.65
		l2.01-95.65l1.01-47.83l1.18-47.83c0.01-0.58,0.5-1.04,1.08-1.02C947.84,165.5,948.29,165.96,948.31,166.52z"/>
</g>
<g>
	<path class="st5" d="M811.97,233.98l1.17,47.82l1.01,47.83l2.01,95.65l1.73,95.65l1.42,95.65c0.45,31.88,1.28,63.77,2,95.65
		c0.66,31.88,0.73,63.77,0.1,95.65c-0.61,31.88-1.62,63.77-3.08,95.65c-1.51,31.88-3.36,63.77-6.37,95.65
		c-0.05,0.58-0.57,1.01-1.15,0.95c-0.51-0.05-0.9-0.46-0.95-0.95c-3.01-31.88-4.86-63.77-6.37-95.65
		c-1.46-31.88-2.46-63.77-3.08-95.65c-0.63-31.88-0.55-63.77,0.1-95.65c0.71-31.88,1.55-63.77,1.99-95.65l1.42-95.65l1.73-95.65
		l2.01-95.65l1.01-47.83l1.17-47.82c0.01-0.58,0.5-1.04,1.08-1.02C811.5,232.96,811.95,233.42,811.97,233.98z"/>
</g>
<g>
	<path class="st56" d="M809.87,84.17c-1.66-0.11-2.91-0.22-4.2-0.33l-1.73-0.17l-1.42-0.17c-0.44-0.06-1.29-0.11-1.99-0.17
		c-0.32-0.03-0.53-0.06-0.55-0.08c-0.02-0.03,0.15-0.06,0.45-0.08c0.6-0.06,1.66-0.11,3.11-0.17l2.59-0.08l3.74-0.08
		c0.64-0.01,1.46-0.01,2.1,0l3.74,0.08l2.59,0.08c1.45,0.06,2.52,0.11,3.11,0.17c0.3,0.03,0.47,0.06,0.45,0.08
		c-0.02,0.03-0.23,0.06-0.55,0.08c-0.71,0.06-1.56,0.11-2,0.17l-1.42,0.17l-1.73,0.17c-1.29,0.11-2.54,0.22-4.2,0.33
		C811.29,84.22,810.53,84.21,809.87,84.17z"/>
</g>
<g>
	<path class="st5" d="M673.36,911.65c-1.66-50.84-2.91-101.69-4.2-152.53l-1.73-76.27l-1.42-76.27c-0.45-25.42-1.28-50.84-2-76.27
		l-0.38-19.07c-0.05-6.36-0.16-12.71-0.16-19.07c-0.02-12.71,0.14-25.42,0.44-38.13c0.61-25.42,1.62-50.84,3.08-76.27
		c1.51-25.42,3.36-50.84,6.37-76.27c0.07-0.58,0.59-0.99,1.17-0.93c0.5,0.06,0.87,0.45,0.93,0.93c3.01,25.42,4.86,50.84,6.37,76.27
		c1.46,25.42,2.46,50.84,3.08,76.27c0.3,12.71,0.46,25.42,0.44,38.13c-0.01,6.36-0.11,12.71-0.16,19.07l-0.38,19.07
		c-0.71,25.42-1.55,50.84-2,76.27l-1.42,76.27l-1.73,76.27c-1.29,50.84-2.54,101.69-4.2,152.53c-0.02,0.58-0.5,1.03-1.08,1.02
		C673.82,912.64,673.38,912.19,673.36,911.65z"/>
</g>
<g>
	<path class="st5" d="M403.38,437.19c-1.66-0.17-2.91-0.35-4.2-0.52l-1.73-0.26l-1.42-0.26c-0.44-0.09-1.29-0.18-2-0.26
		c-0.32-0.04-0.53-0.09-0.55-0.13c-0.02-0.04,0.15-0.09,0.45-0.13c0.6-0.09,1.66-0.18,3.11-0.26l2.59-0.13l3.74-0.13
		c0.68-0.02,1.43-0.02,2.1,0l3.74,0.13l2.59,0.13c1.45,0.09,2.52,0.17,3.11,0.26c0.3,0.04,0.47,0.09,0.45,0.13
		c-0.02,0.04-0.23,0.09-0.55,0.13c-0.7,0.09-1.56,0.18-2,0.26l-1.42,0.26l-1.73,0.26c-1.29,0.17-2.54,0.35-4.2,0.52
		C404.78,437.27,404.04,437.26,403.38,437.19z"/>
</g>
<g>
	<path class="st5" d="M403.38,742.05c-1.66-0.29-2.91-0.58-4.2-0.87l-1.73-0.44c-0.51-0.15-0.98-0.29-1.42-0.44
		c-0.44-0.15-1.29-0.29-2-0.44c-0.32-0.07-0.53-0.15-0.55-0.22c-0.02-0.07,0.15-0.15,0.45-0.22c0.6-0.15,1.66-0.29,3.11-0.44
		l1.18-0.11l1.41-0.11l1.76-0.11l1.99-0.11c0.7-0.04,1.41-0.04,2.1,0l1.99,0.11l1.76,0.11l1.41,0.11l1.18,0.11
		c1.45,0.15,2.52,0.29,3.11,0.44c0.3,0.07,0.47,0.15,0.45,0.22c-0.02,0.07-0.23,0.15-0.55,0.22c-0.7,0.15-1.56,0.29-2,0.44
		c-0.44,0.15-0.9,0.29-1.42,0.44l-1.73,0.44c-1.29,0.29-2.54,0.58-4.2,0.87C404.77,742.17,404.05,742.16,403.38,742.05z"/>
</g>
<g>
	<path class="st5" d="M403.38,587.42l-4.2-0.21l-1.73-0.11l-1.42-0.11l-2-0.11c-0.32-0.02-0.53-0.04-0.55-0.05
		c-0.02-0.02,0.15-0.04,0.45-0.05c0.6-0.04,1.66-0.07,3.11-0.11l6.34-0.11c0.61-0.01,1.49-0.01,2.1,0l6.34,0.11
		c1.45,0.04,2.52,0.07,3.11,0.11c0.3,0.02,0.47,0.04,0.45,0.05c-0.02,0.02-0.23,0.04-0.55,0.05l-2,0.11l-1.42,0.11l-1.73,0.11
		l-4.2,0.21C404.78,587.45,404.06,587.45,403.38,587.42z"/>
</g>
<g>
	<path class="st5" d="M403.38,285.3c-1.66-0.16-2.91-0.32-4.2-0.48l-1.73-0.24l-1.42-0.24c-0.44-0.08-1.29-0.16-2-0.24
		c-0.32-0.04-0.53-0.08-0.55-0.12c-0.02-0.04,0.15-0.08,0.45-0.12c0.6-0.08,1.66-0.16,3.11-0.24l2.59-0.12l3.74-0.12
		c0.67-0.02,1.44-0.02,2.1,0l3.74,0.12l2.59,0.12c1.45,0.08,2.52,0.16,3.11,0.24c0.3,0.04,0.47,0.08,0.45,0.12
		c-0.02,0.04-0.23,0.08-0.55,0.12c-0.7,0.08-1.56,0.16-2,0.24l-1.42,0.24l-1.73,0.24c-1.29,0.16-2.54,0.32-4.2,0.48
		C404.79,285.36,404.04,285.35,403.38,285.3z"/>
</g>
<g>
	<path class="st5" d="M538.95,219.32l-4.2-0.27l-1.73-0.14l-1.42-0.14c-0.44-0.05-1.29-0.09-2-0.14c-0.32-0.02-0.53-0.05-0.55-0.07
		c-0.02-0.02,0.15-0.05,0.45-0.07c0.6-0.05,1.66-0.09,3.11-0.14l2.59-0.07l3.74-0.07c0.62-0.01,1.48-0.01,2.1,0l3.74,0.07l2.59,0.07
		c1.45,0.05,2.52,0.09,3.11,0.14c0.3,0.02,0.47,0.05,0.45,0.07c-0.02,0.02-0.23,0.05-0.55,0.07c-0.7,0.05-1.56,0.09-1.99,0.14
		l-1.42,0.14l-1.73,0.14l-4.2,0.27C540.37,219.36,539.61,219.35,538.95,219.32z"/>
</g>
<g>
	<path class="st5" d="M541.05,368.02c1.66,12.86,2.91,25.72,4.2,38.58l1.73,19.29l1.42,19.29c0.42,6.43,1.32,12.86,1.99,19.29
		c0.68,6.43,0.73,12.86,0.1,19.29c-0.61,6.43-1.62,12.86-3.08,19.29c-1.52,6.43-3.34,12.86-6.37,19.29
		c-0.27,0.58-0.97,0.83-1.54,0.55c-0.25-0.12-0.44-0.32-0.56-0.55c-3.03-6.43-4.85-12.86-6.37-19.29
		c-1.46-6.43-2.46-12.86-3.08-19.29c-0.63-6.43-0.57-12.86,0.1-19.29c0.67-6.43,1.58-12.86,2-19.29l1.42-19.29l1.73-19.29
		c1.29-12.86,2.54-25.72,4.2-38.58c0.07-0.58,0.61-0.99,1.19-0.91C540.62,367.16,540.99,367.55,541.05,368.02z"/>
</g>
<g>
	<path class="st5" d="M541.05,671.48c1.66,13.08,2.91,26.17,4.2,39.25l1.73,19.62l1.42,19.62c0.42,6.54,1.32,13.08,1.99,19.62
		c0.68,6.54,0.73,13.08,0.1,19.62c-0.61,6.54-1.62,13.08-3.08,19.62c-1.52,6.54-3.34,13.08-6.37,19.62
		c-0.27,0.58-0.96,0.83-1.54,0.56c-0.26-0.12-0.45-0.32-0.56-0.56c-3.03-6.54-4.85-13.08-6.37-19.62
		c-1.46-6.54-2.46-13.08-3.08-19.62c-0.63-6.54-0.57-13.08,0.1-19.62c0.67-6.54,1.58-13.08,2-19.62l1.42-19.62l1.73-19.62
		c1.29-13.08,2.54-26.17,4.2-39.25c0.07-0.58,0.6-0.99,1.18-0.92C540.62,670.63,540.99,671.02,541.05,671.48z"/>
</g>
<g>
	<path class="st5" d="M267.8,352.38l-7.35-0.17l-2-0.04c-0.32-0.01-0.53-0.01-0.55-0.02c-0.02-0.01,0.15-0.01,0.45-0.02l3.11-0.04
		l6.34-0.04c0.43,0,1.67,0,2.1,0l6.33,0.04l3.11,0.04c0.3,0.01,0.47,0.01,0.45,0.02c-0.02,0.01-0.23,0.01-0.55,0.02l-2,0.04
		l-7.35,0.17C269.25,352.39,268.44,352.39,267.8,352.38z"/>
</g>
<g>
	<polygon class="st5" points="267.8,502.25 260.45,502.21 258.45,502.2 257.9,502.2 258.35,502.19 267.8,502.17 269.9,502.17 
		279.35,502.19 279.79,502.2 279.24,502.2 277.25,502.21 269.9,502.25 	"/>
</g>
<g>
	<path class="st5" d="M268.29,657.76c-12-5.59-23.79-11.51-35.6-17.41l-17.6-9.01l-17.44-9.28c-5.78-3.14-11.83-5.87-17.74-8.79
		c-5.92-2.92-11.51-6.37-16.74-10.39c-5.23-4.01-10.26-8.36-15.04-13.09c-4.75-4.78-9.34-9.81-13.29-15.87
		c-0.35-0.54-0.2-1.25,0.34-1.6c0.24-0.16,0.52-0.21,0.78-0.18c7.17,0.93,13.7,2.88,20.07,5.08c6.34,2.26,12.43,4.9,18.32,7.87
		c5.89,2.96,11.43,6.5,16.63,10.57c5.2,4.06,10.28,8.32,15.62,12.17l15.93,11.68l15.76,11.95c10.43,8.08,20.89,16.12,31.12,24.52
		c0.45,0.37,0.52,1.04,0.15,1.49C269.24,657.86,268.71,657.96,268.29,657.76z"/>
</g>
<g>
	<path class="st5" d="M401.89,739.21c35.15,20.12,70.08,40.58,105.03,61.02l52.32,30.82l52.15,31.09
		c17.37,10.38,34.95,20.44,52.46,30.6c17.49,10.19,34.65,20.9,51.45,32.2c16.8,11.28,33.4,22.9,49.76,34.9
		c16.33,12.04,32.48,24.37,48.01,37.68c0.45,0.38,0.5,1.05,0.12,1.5c-0.31,0.36-0.82,0.46-1.23,0.28
		c-18.74-8.21-36.85-17.4-54.78-26.89c-17.91-9.53-35.57-19.44-53.03-29.68c-17.47-10.23-34.57-21.04-51.34-32.38
		c-16.75-11.37-33.44-22.84-50.34-33.98l-50.64-33.49l-50.48-33.75c-33.58-22.61-67.18-45.2-100.56-68.13
		c-0.48-0.33-0.6-0.98-0.27-1.46C400.81,739.07,401.42,738.94,401.89,739.21z"/>
</g>
<g>
	<path class="st5" d="M949.64,931.15c-1.13,1.25-2.04,2.16-2.97,3.09l-1.29,1.23c-0.4,0.36-0.77,0.67-1.12,0.97
		c-0.36,0.29-0.93,0.94-1.43,1.46c-0.23,0.23-0.41,0.37-0.48,0.35c-0.07-0.02-0.04-0.2,0.05-0.49c0.19-0.58,0.64-1.56,1.29-2.87
		l0.54-1.06l0.66-1.25l0.84-1.54l0.97-1.74c0.34-0.61,0.72-1.22,1.12-1.78l1.15-1.62l1.03-1.43l0.84-1.14l0.72-0.94
		c0.9-1.15,1.59-1.98,2.03-2.4c0.22-0.21,0.37-0.32,0.42-0.26c0.05,0.06,0,0.27-0.11,0.58c-0.25,0.67-0.58,1.47-0.69,1.92
		c-0.11,0.45-0.24,0.92-0.39,1.43l-0.56,1.7c-0.44,1.24-0.86,2.46-1.5,4.02C950.48,930.04,950.09,930.65,949.64,931.15z"/>
</g>
<g>
	<path class="st5" d="M405.35,586.91l2.2,75.27c0.74,25.29,1.37,50.77,2,76.37l0.08,3.04l-2.92,1.54l-3.06,1.62l-2.47,1.31
		l-2.61-1.56l-67.16-40.14l-67-40.4l-3.82-2.31l-0.09-4.78c-0.25-12.89-0.5-25.77-0.87-38.66l-1.08-38.66l-0.42-19.33l-0.2-19.33
		c-0.05-12.89,0.08-25.77,0.36-38.66l0.42-19.44l15.78,10.49l16.67,11.08l16.59,11.21c11.01,7.55,22.01,15.13,32.9,22.88
		c10.9,7.73,21.74,15.55,32.49,23.53c5.34,4.04,10.72,8.02,16.03,12.11l7.96,6.15l3.95,3.13l1.97,1.56l0.98,0.79l0.62,0.49
		C404.89,586.44,405.13,586.68,405.35,586.91z M403.51,587.92c-0.14,0.01-0.25,0.02-0.34,0.02c-0.06-0.01-0.06,0.01-0.15-0.04
		l-0.29-0.13l-1.14-0.54l-2.26-1.1l-4.53-2.2l-8.99-4.5c-5.98-3.01-11.91-6.13-17.86-9.19c-11.85-6.21-23.61-12.59-35.3-19.05
		c-11.71-6.45-23.31-13.07-34.89-19.71l-17.3-10.08l-17.22-10.21l16.2-8.95c0.28,12.89,0.42,25.77,0.36,38.66l-0.2,19.33
		l-0.42,19.33l-1.08,38.66c-0.37,12.89-0.62,25.77-0.87,38.66l-3.92-7.08l65.48,42.82l65.32,43.08l-5.08-0.25l3.14-1.46l-2.84,4.58
		l2-74.77L403.51,587.92z"/>
</g>
<g>
	<path class="st5" d="M810.36,843.65c-34.76-19.87-69.3-40.09-103.85-60.28l-51.73-30.45L603.2,722.2
		c-17.18-10.26-34.56-20.19-51.87-30.23c-17.3-10.07-34.26-20.66-50.87-31.83c-16.61-11.16-33.01-22.65-49.17-34.52
		c-16.14-11.91-32.09-24.12-47.42-37.31c-0.44-0.38-0.5-1.05-0.11-1.5c0.31-0.36,0.81-0.46,1.23-0.28
		c18.54,8.09,36.46,17.16,54.2,26.52c17.71,9.4,35.19,19.19,52.45,29.31c17.27,10.11,34.18,20.8,50.76,32.01
		c16.56,11.24,33.05,22.59,49.75,33.61l50.05,33.12l49.89,33.38c33.19,22.37,66.4,44.72,99.39,67.4c0.48,0.33,0.6,0.98,0.27,1.46
		C811.44,843.79,810.83,843.92,810.36,843.65z"/>
</g>
<g>
	<path class="st5" d="M268.26,503.12c-12-5.58-23.81-11.52-35.62-17.42l-17.61-9.02l-17.43-9.28c-5.78-3.14-11.82-5.86-17.74-8.79
		c-5.92-2.92-11.5-6.36-16.72-10.38c-5.23-4.01-10.25-8.35-15.02-13.08c-4.75-4.77-9.33-9.81-13.28-15.87
		c-0.35-0.54-0.2-1.25,0.34-1.6c0.24-0.16,0.52-0.21,0.78-0.18c7.17,0.93,13.71,2.88,20.08,5.09c6.34,2.26,12.44,4.91,18.34,7.88
		c5.9,2.97,11.44,6.51,16.64,10.58c5.21,4.06,10.28,8.32,15.62,12.17l15.93,11.68l15.75,11.94c10.43,8.08,20.87,16.1,31.11,24.5
		c0.45,0.37,0.52,1.03,0.15,1.48c-0.31,0.38-0.83,0.49-1.26,0.29L268.26,503.12z"/>
</g>
<g>
	<path class="st5" d="M946.7,779.08c-1.28,1.16-2.33,1.97-3.41,2.82l-1.51,1.1c-0.47,0.31-0.91,0.58-1.34,0.83
		c-0.43,0.25-1.08,0.85-1.65,1.32c-0.27,0.21-0.48,0.33-0.59,0.28c-0.11-0.04-0.12-0.25-0.06-0.56c0.12-0.63,0.49-1.65,1.07-3.01
		c0.16-0.37,0.28-0.66,0.48-1.09l0.6-1.29l0.79-1.58l0.4-0.8l0.51-0.98c0.32-0.61,0.72-1.24,1.12-1.78l0.66-0.88l0.54-0.7l1.08-1.39
		l0.9-1.1c0.3-0.37,0.51-0.6,0.78-0.91c0.97-1.11,1.73-1.89,2.25-2.27c0.26-0.19,0.45-0.27,0.53-0.19c0.09,0.08,0.07,0.32,0,0.65
		c-0.18,0.72-0.44,1.57-0.47,2.06c-0.04,0.5-0.09,1.01-0.17,1.57l-0.33,1.84c-0.29,1.34-0.57,2.64-1.06,4.3
		C947.61,778.01,947.2,778.62,946.7,779.08z"/>
</g>
<g>
	<path class="st5" d="M812.04,694.49l-35.59-20.94l-35.53-21.03l-70.97-42.23l2.86,0.83h-0.01l-1.43,0.03l-1.42-0.85
		c-34.12-20.42-68.26-40.8-102.26-61.4l-51.08-30.78l-51.34-30.38l-12.78-7.68l-12.71-7.8c-8.47-5.2-16.86-10.53-25.21-15.92
		c-8.36-5.37-16.64-10.88-24.91-16.39c-4.14-2.74-8.27-5.51-12.39-8.3c-4.12-2.79-8.25-5.55-12.34-8.37
		c-16.43-11.21-32.73-22.62-48.86-34.3c-8.08-5.82-16.09-11.75-24.06-17.75c-4-2.97-7.96-6.01-11.92-9.06
		c-3.97-3.03-7.89-6.13-11.79-9.26c-0.46-0.36-0.53-1.03-0.17-1.48c0.31-0.39,0.85-0.5,1.28-0.3c4.52,2.15,9.01,4.34,13.46,6.6
		c4.46,2.24,8.92,4.49,13.33,6.8c8.86,4.58,17.68,9.22,26.43,13.97c17.53,9.47,34.89,19.2,52.12,29.14
		c17.22,9.95,34.37,20.03,51.34,30.38c8.48,5.18,16.92,10.42,25.28,15.8l12.54,8.06l12.46,8.18l49.65,33.06l49.9,32.65
		c33.32,21.69,66.5,43.6,99.71,65.47l-2.84-0.82h0.01l1.66,0.04l1.2,0.79l68.82,45.6l34.37,22.88l34.31,22.98
		c0.48,0.32,0.61,0.98,0.29,1.46C813.13,694.64,812.51,694.77,812.04,694.49z"/>
</g>
<g>
	<path class="st5" d="M948.99,626.72c-1.07,1.29-1.93,2.23-2.81,3.2l-1.21,1.29c-0.37,0.37-0.71,0.71-1.04,1.02
		c-0.33,0.31-0.88,0.97-1.35,1.51c-0.22,0.24-0.38,0.39-0.44,0.38c-0.06-0.01-0.02-0.19,0.09-0.47c0.22-0.56,0.69-1.53,1.37-2.82
		l1.24-2.29l1.85-3.26c0.34-0.6,0.73-1.22,1.12-1.78l2.13-3.08l1.52-2.11c0.87-1.17,1.53-2.01,1.94-2.46
		c0.21-0.22,0.35-0.34,0.38-0.29c0.04,0.05-0.03,0.26-0.15,0.56c-0.28,0.66-0.64,1.44-0.78,1.87c-0.14,0.43-0.29,0.89-0.47,1.38
		l-0.64,1.65c-0.49,1.21-0.97,2.39-1.66,3.92C949.81,625.59,949.42,626.2,948.99,626.72z"/>
</g>
<g>
	<path class="st5" d="M810.36,539.64c-12.26-5.73-24.3-11.82-36.36-17.88l-17.98-9.25l-17.82-9.52c-5.91-3.22-12.08-6.03-18.12-9.03
		c-6.05-3-11.77-6.53-17.12-10.63c-5.36-4.09-10.52-8.52-15.43-13.33c-4.88-4.86-9.6-9.97-13.68-16.11
		c-0.35-0.53-0.21-1.25,0.32-1.6c0.24-0.16,0.53-0.22,0.79-0.18c7.3,1.01,13.96,3.03,20.45,5.32c6.46,2.34,12.69,5.06,18.7,8.11
		c6.02,3.04,11.68,6.66,17.01,10.81c5.33,4.14,10.54,8.48,16,12.41l16.31,11.92l16.14,12.19c10.69,8.23,21.4,16.45,31.9,24.99l0,0
		c0.45,0.37,0.52,1.04,0.15,1.49C811.32,539.73,810.79,539.84,810.36,539.64z"/>
</g>
<g>
	<path class="st5" d="M539.44,369.45c-12.18-5.69-24.14-11.73-36.12-17.73l-17.86-9.18l-17.7-9.44c-5.87-3.19-12-5.98-18-8.95
		c-6.01-2.98-11.69-6.48-17-10.56c-5.32-4.07-10.44-8.47-15.31-13.26c-4.85-4.83-9.52-9.93-13.57-16.04
		c-0.35-0.53-0.21-1.25,0.32-1.6c0.24-0.16,0.53-0.22,0.79-0.18c7.27,0.97,13.88,2.98,20.33,5.24c6.42,2.31,12.6,5.01,18.58,8.04
		c5.98,3.02,11.6,6.61,16.89,10.74c5.29,4.12,10.46,8.43,15.89,12.34l16.19,11.85l16.03,12.11c10.61,8.19,21.25,16.35,31.66,24.85
		c0.45,0.37,0.52,1.03,0.16,1.49C540.4,369.54,539.87,369.64,539.44,369.45z"/>
</g>
<g>
	<path class="st5" d="M810.36,390.39c-1.18,1.22-2.15,2.09-3.14,2.99l-1.37,1.18c-0.42,0.34-0.82,0.64-1.21,0.92
		c-0.38,0.28-0.99,0.9-1.51,1.41c-0.24,0.22-0.43,0.35-0.52,0.33c-0.09-0.03-0.07-0.22,0.01-0.52c0.17-0.6,0.58-1.59,1.21-2.92
		l0.52-1.07l0.64-1.27l0.82-1.56l0.42-0.79l0.53-0.97c0.32-0.59,0.74-1.24,1.12-1.78l0.64-0.9l0.53-0.71l1.05-1.42l0.86-1.12
		l0.74-0.93c0.92-1.14,1.64-1.94,2.11-2.35c0.23-0.2,0.4-0.3,0.46-0.24c0.06,0.06,0.03,0.29-0.07,0.61
		c-0.22,0.69-0.53,1.51-0.61,1.97c-0.08,0.47-0.18,0.96-0.3,1.48l-0.47,1.75c-0.38,1.28-0.75,2.53-1.33,4.12
		C811.23,389.3,810.83,389.91,810.36,390.39z"/>
</g>
<g>
	<path class="st5" d="M539.59,217.82c11.98,5.6,23.76,11.53,35.55,17.44l17.58,9.02l17.42,9.28c5.77,3.16,11.77,5.94,17.7,8.85
		c5.95,2.87,11.61,6.19,16.89,10.14c5.27,3.96,10.36,8.18,15.19,12.83c4.82,4.66,9.46,9.62,13.6,15.36l-1.11-0.32l0.01,0l1.1,0.32
		c0.48,0.7,0.98,1.38,1.43,2.11c0.34,0.55,0.17,1.27-0.38,1.61c-0.23,0.14-0.49,0.19-0.73,0.17c-0.86-0.09-1.69-0.24-2.53-0.37
		l1.1,0.32l-0.01,0l-1.11-0.32c-6.97-1.24-13.45-3.26-19.75-5.58c-6.28-2.34-12.3-5.1-18.15-8.12c-5.84-3.04-11.29-6.7-16.46-10.81
		c-5.19-4.08-10.3-8.28-15.65-12.1l-15.92-11.67l-15.76-11.93c-10.44-8.06-20.9-16.09-31.14-24.46c-0.45-0.37-0.52-1.04-0.15-1.49
		C538.63,217.72,539.16,217.62,539.59,217.82z"/>
</g>
<g>
	<path class="st5" d="M942.65,471.21l0.01-0.03l0.58,0.17c1.27-1.16,2.31-1.98,3.38-2.82l1.49-1.1c0.46-0.31,0.9-0.58,1.33-0.84
		c0.42-0.25,1.07-0.86,1.64-1.33c0.26-0.21,0.47-0.32,0.58-0.28c0.11,0.04,0.11,0.25,0.05,0.57c-0.13,0.63-0.5,1.65-1.08,3
		c-0.16,0.37-0.28,0.66-0.48,1.09l-0.61,1.29l-0.79,1.57l-0.4,0.79l-0.51,0.97c-0.32,0.61-0.72,1.24-1.12,1.78l-0.66,0.88l-0.54,0.7
		l-1.08,1.39l-0.89,1.1c-0.3,0.37-0.51,0.6-0.77,0.91c-0.97,1.11-1.72,1.89-2.23,2.28c-0.26,0.19-0.44,0.28-0.53,0.2
		c-0.09-0.07-0.07-0.31,0-0.64c0.18-0.71,0.44-1.56,0.49-2.05c0.04-0.5,0.1-1,0.18-1.56l0.34-1.82c0.3-1.33,0.58-2.62,1.08-4.27
		l0.58,0.17l-0.01-0.03C942.44,472.61,942.46,471.87,942.65,471.21z"/>
</g>
<g>
	<path class="st5" d="M940.33,320.38l0.01-0.02l0.57,0.16c1.46-1.04,2.7-1.74,3.96-2.46l1.78-0.92c0.56-0.25,1.09-0.46,1.62-0.66
		c0.52-0.19,1.26-0.73,1.92-1.15c0.31-0.18,0.57-0.27,0.72-0.19c0.16,0.07,0.21,0.31,0.19,0.65c-0.03,0.69-0.31,1.77-0.79,3.18
		c-0.14,0.38-0.23,0.69-0.41,1.14l-0.53,1.33l-0.72,1.62l-0.36,0.82l-0.48,1c-0.3,0.63-0.7,1.25-1.12,1.78l-0.69,0.86l-0.58,0.68
		l-1.15,1.35l-0.97,1.06c-0.32,0.36-0.56,0.57-0.84,0.86c-1.06,1.05-1.91,1.77-2.52,2.1c-0.3,0.16-0.54,0.22-0.67,0.11
		c-0.13-0.11-0.17-0.38-0.14-0.73c0.08-0.77,0.25-1.68,0.19-2.23c-0.05-0.56-0.1-1.13-0.11-1.74l0.05-2.01
		c0.11-1.45,0.19-2.87,0.5-4.63l0.57,0.16l-0.01-0.02C940.02,321.78,940.05,321.02,940.33,320.38z"/>
</g>
<g>
	<path class="st5" d="M810.36,241c-1.34,1.12-2.46,1.9-3.6,2.7l-1.6,1.04c-0.5,0.29-0.97,0.54-1.44,0.77
		c-0.46,0.23-1.14,0.81-1.74,1.26c-0.28,0.2-0.51,0.31-0.63,0.25c-0.13-0.05-0.15-0.27-0.1-0.59c0.09-0.65,0.43-1.69,0.97-3.07
		c0.16-0.37,0.26-0.67,0.46-1.11l0.58-1.3l0.76-1.59l0.39-0.8l0.5-0.98c0.31-0.62,0.71-1.24,1.12-1.78l0.67-0.88l0.56-0.7l1.1-1.38
		l0.92-1.09c0.31-0.37,0.53-0.59,0.8-0.89c1-1.09,1.79-1.85,2.34-2.21c0.27-0.18,0.48-0.25,0.58-0.16c0.1,0.09,0.1,0.34,0.05,0.68
		c-0.15,0.74-0.37,1.61-0.38,2.12c-0.01,0.52-0.02,1.05-0.07,1.63l-0.24,1.9c-0.23,1.38-0.44,2.72-0.86,4.42
		C811.29,239.95,810.89,240.56,810.36,241z"/>
</g>
<g>
	<path class="st5" d="M673.85,155.25c-1.08,1.28-1.94,2.22-2.82,3.19l-1.22,1.28c-0.37,0.37-0.72,0.7-1.05,1.02
		c-0.33,0.31-0.88,0.97-1.35,1.51c-0.22,0.24-0.38,0.39-0.44,0.38c-0.06-0.01-0.02-0.19,0.09-0.47c0.22-0.57,0.69-1.53,1.36-2.82
		l1.23-2.29l1.84-3.26c0.34-0.6,0.73-1.22,1.12-1.78l2.14-3.08l1.53-2.1c0.87-1.17,1.53-2.01,1.95-2.45
		c0.21-0.22,0.35-0.34,0.38-0.29c0.04,0.05-0.03,0.26-0.15,0.56c-0.28,0.66-0.63,1.44-0.77,1.88c-0.14,0.44-0.28,0.89-0.46,1.39
		l-0.63,1.65c-0.49,1.21-0.96,2.4-1.64,3.93C674.67,154.12,674.28,154.74,673.85,155.25z"/>
</g>
<g>
	<path class="st5" d="M811.38,234.92l-5.31,3.04l-0.61,0.35l-0.77-0.42c-11.34-6.18-22.62-12.48-33.91-18.75l-33.76-19l-33.65-19.17
		l-33.51-19.39l-3.78-2.19l-0.2-5.02l-0.11-2.65l-0.2-5.02l5-2.71c11.16-6.06,22.13-12.52,33.27-18.62
		c11.11-6.16,22.54-11.68,34.22-16.69c11.66-5.05,23.48-9.78,35.49-14.12c12.05-4.27,24.21-8.31,36.89-11.31
		c0.58-0.14,1.16,0.22,1.3,0.8c0.1,0.41-0.06,0.83-0.37,1.08c-10.08,8.26-20.67,15.47-31.37,22.46
		c-10.74,6.91-21.67,13.44-32.76,19.65c-11.07,6.25-22.39,11.98-34.03,17.08c-11.61,5.15-23.4,9.95-34.99,15.15l4.8-7.73l-0.11,2.65
		l-3.99-7.21l32.01,21.77l31.87,21.99l31.76,22.17c10.55,7.45,21.11,14.88,31.61,22.41l-1.38-0.07l5.63-2.38
		c0.54-0.23,1.15,0.02,1.38,0.56C812.04,234.09,811.84,234.66,811.38,234.92z"/>
</g>
<g>
	<path class="st5" d="M810.45,83.23l1.14-0.65l0.49-0.28l0.61,0.33l17.31,9.47l17.25,9.56l34.4,19.28l34.27,19.48l34.13,19.71
		l13,7.51l-13.76,7.45c-11.01,5.96-21.81,12.35-32.78,18.4c-10.94,6.1-22.2,11.57-33.71,16.51c-11.5,4.98-23.16,9.63-35.01,13.89
		c-11.89,4.19-23.89,8.14-36.42,11.05c-0.58,0.13-1.16-0.23-1.29-0.81c-0.1-0.41,0.06-0.82,0.36-1.07
		c9.91-8.2,20.33-15.34,30.87-22.25c10.58-6.84,21.35-13.29,32.28-19.41c10.92-6.15,22.09-11.78,33.58-16.78
		c11.46-5.05,23.09-9.76,34.51-14.9l-0.76,14.96l-32.57-22.19l-32.43-22.42l-32.3-22.62l-16.1-11.39L811.5,84.55l1.1,0.06
		l-1.22,0.51c-0.54,0.22-1.15-0.03-1.38-0.56C809.8,84.06,810,83.49,810.45,83.23z"/>
</g>
<g>
	<path class="st56" d="M811.53,84.48c-0.99,1.34-1.76,2.33-2.55,3.36l-1.08,1.37l-0.91,1.1c-0.28,0.34-0.79,1.03-1.22,1.59
		c-0.2,0.25-0.33,0.42-0.37,0.42c-0.04,0,0.03-0.16,0.17-0.42c0.27-0.53,0.79-1.46,1.52-2.72l1.32-2.24l1.93-3.2
		c0.33-0.55,0.77-1.24,1.13-1.77l2.08-3.11l1.47-2.14c0.83-1.2,1.45-2.06,1.82-2.53c0.18-0.24,0.3-0.36,0.31-0.33
		c0.01,0.03-0.08,0.23-0.22,0.51c-0.33,0.63-0.74,1.38-0.92,1.78l-0.61,1.29l-0.78,1.56c-0.59,1.15-1.17,2.27-1.96,3.73
		C812.34,83.31,811.92,83.94,811.53,84.48z"/>
</g>
<g>
	<path class="st5" d="M946.7,169.38c-1.03,1.31-1.85,2.28-2.68,3.27l-1.14,1.33l-0.98,1.06c-0.31,0.32-0.83,1-1.28,1.55
		c-0.21,0.25-0.36,0.4-0.4,0.4c-0.05,0,0.01-0.17,0.13-0.45c0.24-0.55,0.74-1.5,1.44-2.77l1.27-2.26l1.89-3.23
		c0.34-0.59,0.75-1.22,1.12-1.78l2.11-3.1l1.49-2.12c0.85-1.18,1.49-2.04,1.88-2.5c0.2-0.23,0.32-0.35,0.35-0.31
		c0.03,0.04-0.05,0.24-0.18,0.54c-0.3,0.64-0.68,1.41-0.84,1.83l-0.54,1.34l-0.7,1.6c-0.54,1.18-1.06,2.33-1.8,3.83
		C947.51,168.23,947.11,168.85,946.7,169.38z"/>
</g>
<g>
	<path class="st5" d="M134.35,573.04c-1.66-12.89-2.91-25.77-4.2-38.66l-1.73-19.33L127,495.72c-0.42-6.44-1.32-12.89-1.99-19.33
		c-0.68-6.44-0.73-12.89-0.1-19.33c0.61-6.44,1.62-12.89,3.08-19.33c1.52-6.44,3.34-12.89,6.37-19.33c0.27-0.58,0.96-0.83,1.54-0.56
		c0.25,0.12,0.44,0.32,0.56,0.56c3.03,6.44,4.85,12.89,6.37,19.33c1.46,6.44,2.46,12.89,3.08,19.33c0.63,6.44,0.57,12.89-0.1,19.33
		c-0.67,6.44-1.58,12.89-2,19.33l-1.42,19.33l-1.73,19.33c-1.29,12.89-2.54,25.77-4.2,38.66c-0.07,0.58-0.61,0.99-1.19,0.91
		C134.77,573.89,134.41,573.5,134.35,573.04z"/>
</g>
</svg>
