<?xml version="1.0" encoding="utf-8"?>
<!-- Generator: Adobe Illustrator 25.2.0, SVG Export Plug-In . SVG Version: 6.00 Build 0)  -->
<svg version="1.1" id="Layer_1" xmlns="http://www.w3.org/2000/svg" xmlns:xlink="http://www.w3.org/1999/xlink" x="0px" y="0px"
	 viewBox="0 0 1080 1080" style="enable-background:new 0 0 1080 1080;" xml:space="preserve">
<style type="text/css">
	.st0{fill:#FFBB85;stroke:#231F20;stroke-width:16;stroke-miterlimit:10;}
	.st1{fill:#538BC1;stroke:#231F20;stroke-width:17;stroke-miterlimit:10;}
	.st2{fill:#F5A86C;}
	.st3{fill:#355977;}
	.st4{fill:none;stroke:#0F4378;stroke-width:6;stroke-miterlimit:10;}
	.st5{fill:#0F4378;}
	.st6{fill:#1B4EA1;}
	.st7{fill:#9E9E9E;}
	.st8{fill:#CECECE;}
	.st9{fill:#282828;}
	.st10{fill:#707070;}
	.st11{fill:#FAB400;}
	.st12{fill:#DC9600;}
	.st13{fill:#D2AA82;}
	.st14{fill:#707789;}
	.st15{fill:#525763;}
	.st16{fill:#F0F0F0;}
	.st17{fill:#CCEFFF;}
	.st18{fill:#949DB2;}
	.st19{fill:#FFFFFF;}
	.st20{fill:#2A65A0;}
	.st21{fill:#D1D3D4;}
	.st22{fill:#538BC1;}
	.st23{fill:#EFEDEF;}
	.st24{fill:#7F8B9A;}
	.st25{fill:#A8B9CC;}
	.st26{fill:#F2F2F2;}
	.st27{fill-rule:evenodd;clip-rule:evenodd;fill:#538BC1;}
	.st28{fill-rule:evenodd;clip-rule:evenodd;fill:#235587;}
	.st29{fill:#8AC9FE;}
	.st30{fill:#F7C75C;}
	.st31{fill:#9FABBF;}
	.st32{fill:#F3F3F3;}
	.st33{fill:#E4E4E4;}
	.st34{fill:#F5F5F5;}
	.st35{fill:#5D9CEC;}
	.st36{fill:#E6E9ED;}
	.st37{fill:#87BCF4;}
	.st38{fill:#48CFAD;}
	.st39{fill:#A0D468;}
	.st40{fill:#CCD1D9;}
	.st41{fill:#F6BB42;}
	.st42{fill:#FFCE54;}
	.st43{fill:#4A89DC;}
	.st44{fill:#AAB2BD;}
	.st45{fill:#1C4466;}
	.st46{fill:#0F4378;stroke:#0F4378;stroke-miterlimit:10;}
	.st47{fill:#E6F9FF;}
	.st48{fill:#B8CBD9;}
	.st49{fill:#E8EFF4;}
	.st50{fill:#0A2D49;}
	.st51{fill:#838587;}
	.st52{fill:#666768;}
	.st53{fill:#EDF5FF;}
	.st54{fill:#D5E8FE;}
	.st55{fill:#E2E2E2;}
	.st56{fill:#58595B;}
	.st57{fill:none;stroke:#0F4378;stroke-miterlimit:10;}
	.st58{fill:#092F4F;stroke:#0F4378;stroke-miterlimit:10;}
	.st59{opacity:0.49;}
	.st60{fill:#CE8F02;}
	.st61{fill:#0B3456;stroke:#0F4378;stroke-miterlimit:10;}
	.st62{fill:none;stroke:#0F4378;stroke-width:12;stroke-miterlimit:10;}
	.st63{fill:#538BC1;stroke:#0F4378;stroke-width:12;stroke-miterlimit:10;}
	.st64{fill:#FAB400;stroke:#0F4378;stroke-width:12;stroke-miterlimit:10;}
	.st65{fill:#FF321D;stroke:#0F4378;stroke-width:12;stroke-miterlimit:10;}
	.st66{fill:#538BC1;stroke:#231F20;stroke-width:5;stroke-miterlimit:10;}
	.st67{fill:#CCEFFF;stroke:#231F20;stroke-width:5;stroke-miterlimit:10;}
	.st68{fill:none;stroke:#231F20;stroke-width:5;stroke-miterlimit:10;}
	.st69{fill:#636363;}
	.st70{fill:none;stroke:#0F4378;stroke-width:3;stroke-miterlimit:10;}
	.st71{fill:#235FB7;}
	.st72{fill:#235FB7;stroke:#231F20;stroke-width:6;stroke-miterlimit:10;}
	.st73{fill:none;stroke:#231F20;stroke-width:6;stroke-miterlimit:10;}
	.st74{fill:#235FB7;stroke:#58595B;stroke-width:6;stroke-miterlimit:10;}
	.st75{fill:none;stroke:#58595B;stroke-width:6;stroke-miterlimit:10;}
	.st76{fill:none;stroke:#0F4378;stroke-width:23;stroke-miterlimit:10;}
	.st77{fill:none;stroke:#0F4378;stroke-width:10;stroke-miterlimit:10;}
	.st78{fill:none;stroke:#0F4378;stroke-width:24;stroke-miterlimit:10;}
	.st79{fill:none;stroke:#0F4378;stroke-width:15;stroke-miterlimit:10;}
	.st80{fill:none;stroke:#0F4378;stroke-width:6;stroke-miterlimit:10;stroke-dasharray:12.0806,12.0806;}
	.st81{fill:none;stroke:#0F4378;stroke-width:6;stroke-miterlimit:10;stroke-dasharray:12.0738,12.0738;}
	.st82{fill:none;stroke:#0F4378;stroke-width:21;stroke-miterlimit:10;}
	.st83{fill:none;stroke:#0F4378;stroke-width:5;stroke-miterlimit:10;}
	.st84{fill:#70B6EF;}
	.st85{fill:none;stroke:#74A5CE;stroke-width:18;stroke-miterlimit:10;}
	.st86{fill:#74A5CE;}
	.st87{fill:none;stroke:#0F4378;stroke-width:18;stroke-miterlimit:10;}
	.st88{fill:#F0C419;}
	.st89{fill:#EDF4FC;}
	.st90{fill:#3A6587;}
	.st91{fill:#133970;}
	.st92{fill:#B3D5E0;}
	.st93{fill:#3D6A8E;}
	.st94{fill:#2488FF;}
	.st95{fill:#ACABB1;}
	.st96{fill:#898890;}
	.st97{fill:#0C3354;stroke:#0F4378;stroke-miterlimit:10;}
	.st98{fill:#538BC1;stroke:#231F20;stroke-width:8;stroke-miterlimit:10;}
	.st99{fill:none;stroke:#231F20;stroke-width:3;stroke-miterlimit:10;}
	.st100{fill:#231F20;}
	.st101{fill:#416D91;}
	.st102{fill:#E0E0E0;}
	.st103{fill:#C0C0C0;}
	.st104{fill:#0D385B;stroke:#0F4378;stroke-miterlimit:10;}
	.st105{fill:#538BC1;stroke:#0F4378;stroke-width:6;stroke-miterlimit:10;}
	.st106{fill:none;stroke:#0F4378;stroke-width:4;stroke-miterlimit:10;}
	.st107{fill:none;stroke:#0F4378;stroke-width:2;stroke-miterlimit:10;}
	.st108{fill:#FFFFFF;stroke:#0F4378;stroke-width:6;stroke-miterlimit:10;}
	.st109{fill:#538BC1;stroke:#0F4378;stroke-width:2;stroke-miterlimit:10;}
	.st110{fill:#0C3251;}
	.st111{fill:#231F20;stroke:#A7A9AC;stroke-miterlimit:10;}
	.st112{fill:#0F4378;stroke:#0F4378;stroke-width:4;stroke-miterlimit:10;}
	.st113{fill:#0C3251;stroke:#0F4378;stroke-width:3;stroke-miterlimit:10;}
	.st114{fill:#538BC1;stroke:#0F4378;stroke-width:3;stroke-miterlimit:10;}
	.st115{fill:none;stroke:#FFFFFF;stroke-width:0.5;stroke-miterlimit:10;}
	.st116{fill:#FFFFFF;stroke:#0F4378;stroke-width:2;stroke-miterlimit:10;}
	.st117{fill:#FAB400;stroke:#0F4378;stroke-width:6;stroke-miterlimit:10;}
	.st118{fill:none;stroke:#A7A9AC;stroke-miterlimit:10;}
	.st119{fill:#A7A9AC;}
	.st120{fill:none;stroke:#BABA3C;stroke-width:2;stroke-miterlimit:10;}
	.st121{fill:none;stroke:#494949;stroke-width:2;stroke-miterlimit:10;}
	.st122{fill:none;stroke:#58595B;stroke-width:3;stroke-miterlimit:10;}
	.st123{fill:none;stroke:#FF0000;stroke-width:2;stroke-miterlimit:10;}
	.st124{fill:none;stroke:#EFDB22;stroke-width:6;stroke-miterlimit:10;}
	.st125{fill:none;stroke:#4D5160;stroke-miterlimit:10;}
	.st126{fill:#4D5160;}
	.st127{opacity:0.6;}
	.st128{fill:none;stroke:#0F4378;stroke-miterlimit:10;stroke-dasharray:11.764,11.764;}
	.st129{fill:none;stroke:#0F4378;stroke-miterlimit:10;stroke-dasharray:11.9302,11.9302;}
	.st130{fill:none;stroke:#0F4378;stroke-miterlimit:10;stroke-dasharray:12.1802,12.1802;}
	.st131{fill:#538BC1;stroke:#0F4378;stroke-width:4;stroke-miterlimit:10;}
</style>
<g>
	<path class="st22" d="M96.77,592.94l1.27,273.73c0.01,3.52,1.95,6.74,5.04,8.41l218.64,114.48c1.43,0.77,2.98,1.14,4.55,1.14
		c0.01,0,0.01,0,0.02,0c0.66,0.73,1.39,1.44,2.28,1.97c1.51,0.91,3.21,1.36,4.91,1.36c1.58,0,3.14-0.38,4.57-1.14l215.87-117.07
		c1.98-1.07,3.4-2.82,4.23-4.8c0.87,1.67,2.19,3.15,3.93,4.09l218.63,114.48c1.43,0.77,2.99,1.14,4.56,1.14c0.01,0,0.01,0,0.02,0
		c0.67,0.73,1.39,1.44,2.27,1.97c1.53,0.91,3.23,1.36,4.92,1.36c1.58,0,3.13-0.38,4.56-1.14l215.87-117.1
		c3.1-1.66,5.04-4.92,5.04-8.45V582.54c0-0.09-0.04-0.17-0.04-0.24c0-0.06,0.02-0.14,0.02-0.23c-0.01-0.25-0.11-0.53-0.15-0.78
		c-0.08-0.54-0.15-1.06-0.29-1.58c-0.12-0.33-0.25-0.67-0.41-1c-0.21-0.45-0.4-0.89-0.67-1.3c-0.21-0.32-0.43-0.63-0.67-0.91
		c-0.3-0.37-0.64-0.71-0.99-1.05c-0.27-0.25-0.58-0.49-0.9-0.71c-0.22-0.13-0.37-0.32-0.6-0.46c-0.22-0.12-0.44-0.18-0.67-0.27
		c-0.21-0.11-0.32-0.24-0.53-0.31L789.58,465.97c-0.89-0.37-1.84-0.41-2.78-0.51V182.53c0-0.08-0.02-0.16-0.02-0.24
		c-0.01-0.08,0.01-0.14,0.01-0.22c-0.01-0.27-0.13-0.53-0.16-0.79c-0.08-0.53-0.15-1.06-0.29-1.57c-0.11-0.35-0.26-0.68-0.41-1
		c-0.22-0.45-0.39-0.9-0.67-1.3c-0.22-0.32-0.44-0.62-0.67-0.91c-0.3-0.37-0.63-0.72-0.98-1.05c-0.27-0.25-0.59-0.49-0.9-0.7
		c-0.23-0.15-0.38-0.35-0.6-0.49c-0.23-0.12-0.45-0.17-0.67-0.28c-0.21-0.1-0.33-0.23-0.52-0.29L558.52,65.97
		c-2.59-1.1-5.53-1-8.06,0.27L330.59,180.85c-3.23,1.63-5.26,4.92-5.28,8.53c0,0.06,0.02,0.12,0.02,0.17
		c-0.4,1.07-0.68,2.18-0.68,3.37l1.27,272.46c-1.14,0.12-2.3,0.32-3.36,0.85L102.69,580.86c-3.22,1.62-5.26,4.92-5.28,8.54
		c0,0.05,0.03,0.1,0.03,0.16C97.04,590.62,96.76,591.75,96.77,592.94z M755.07,183.6L561.27,291.96L356.05,189.55L555.14,85.39
		L755.07,183.6z M767.65,464.81L570.98,568.32V308.54l196.67-109.92V464.81z M802.08,708.54l196.67-109.91v262.98L802.08,968.33
		C802.08,968.33,802.08,708.54,802.08,708.54z M587.16,589.54l199.09-104.16l199.92,98.25l-193.8,108.33L587.16,589.54z
		 M343.07,708.54l196.68-109.9v262.98l-196.68,106.7V708.54z M128.17,589.54l199.09-104.16l199.92,98.25L333.37,691.97
		L128.17,589.54z"/>
</g>
<path class="st19" d="M570.98,860.86l5.8-234.78l181.5,152.02l-113.68-2.81L570.98,860.86z M594.14,664.48l-3.6,145.61l45.85-53.3
	l70.02,1.73L594.14,664.48z"/>
</svg>
