<?xml version="1.0" encoding="utf-8"?>
<!-- Generator: Adobe Illustrator 25.2.0, SVG Export Plug-In . SVG Version: 6.00 Build 0)  -->
<svg version="1.1" id="Layer_1" xmlns:svgjs="http://svgjs.com/svgjs"
	 xmlns="http://www.w3.org/2000/svg" xmlns:xlink="http://www.w3.org/1999/xlink" x="0px" y="0px" viewBox="0 0 512 512"
	 style="enable-background:new 0 0 512 512;" xml:space="preserve">
<style type="text/css">
	.st0{fill:#707789;}
	.st1{fill:#525763;}
	.st2{fill:#CCEFFF;}
	.st3{fill:#538BC1;}
	.st4{fill:#5C8DBC;}
	.st5{fill:#4B7699;}
	.st6{fill:#EFEDEF;}
	.st7{fill:#4A7293;}
	.st8{fill:#F5F5F5;}
	.st9{fill:#FAB400;}
	.st10{fill:#13324F;}
	.st11{fill:#1A4674;}
	.st12{fill:#E6F9FF;}
	.st13{fill:#FFFFFF;}
	.st14{fill:#0F4378;}
	.st15{fill:none;stroke:#1A4674;stroke-width:9;stroke-miterlimit:10;}
	.st16{fill:none;stroke:#1A4674;stroke-width:5;stroke-miterlimit:10;}
	.st17{fill:#5C8DBC;stroke:#1A4674;stroke-width:7;stroke-miterlimit:10;}
	.st18{fill:none;stroke:#1A4674;stroke-width:22;stroke-miterlimit:10;}
	.st19{fill:#FFFFFF;stroke:#1A4674;stroke-width:7;stroke-miterlimit:10;}
	.st20{fill:none;stroke:#1A4674;stroke-width:7;stroke-linecap:square;stroke-miterlimit:10;}
	.st21{fill:#063E8B;}
	.st22{fill:#213F69;}
	.st23{fill:#22559C;}
	.st24{fill:#0A4EAF;}
	.st25{fill:#F9F6F6;}
	.st26{fill:#E2D8EC;}
	.st27{fill:#D5707E;}
	.st28{fill:#F0D16F;}
	.st29{fill:#A4D9A6;}
	.st30{fill:#538BC1;stroke:#0F4378;stroke-width:5;stroke-miterlimit:10;}
	.st31{fill:none;stroke:#0F4378;stroke-width:3;stroke-miterlimit:10;}
</style>
<circle class="st4" cx="203.9" cy="91.1" r="53.9"/>
<circle class="st4" cx="427.9" cy="144.4" r="41.9"/>
<circle class="st4" cx="449.2" cy="402.3" r="41.9"/>
<circle class="st4" cx="86.6" cy="251.1" r="41.9"/>
<circle class="st4" cx="139.9" cy="432.4" r="49.1"/>
<ellipse class="st4" cx="269.3" cy="261" rx="80.3" ry="82"/>
<g>
	<g>
		<path class="st11" d="M449.2,347.1c-13.4,0-25.5,5.1-34.8,13.3l-73.1-55.9c7.4-12.6,11.9-27.1,11.9-42.7c0-15-4.2-28.9-11.1-41.2
			l50.1-36.7c9.5,8.6,21.9,14,35.7,14c29.4,0,53.3-23.9,53.3-53.3s-23.9-53.3-53.3-53.3s-53.3,23.9-53.3,53.3c0,7.9,1.9,15.4,5,22.2
			l-49.9,36.6c-15.6-16.4-37.4-26.8-61.8-26.8c-6.8,0-13.3,1-19.7,2.5l-12.3-32.8c19-11.1,32-31.5,32-55.1c0-35.3-28.7-64-64-64
			s-64,28.7-64,64s28.7,64,64,64c4.2,0,8.2-0.5,12.1-1.2l12.3,32.8c-22.6,12-39.3,33.6-44.2,59.5l-45-2.6
			c-3.7-25.8-25.8-45.7-52.6-45.7c-29.4,0-53.3,23.9-53.3,53.3s23.9,53.3,53.3,53.3c24.6,0,45.2-16.9,51.3-39.6l45.3,2.7
			c1.5,21.7,10.8,41.2,25.5,55.5l-39.6,52.8c-8.8-4.5-18.6-7.4-29.2-7.4c-35.3,0-64,28.7-64,64s28.7,64,64,64s64-28.7,64-64
			c0-17-6.8-32.5-17.7-43.9l39.7-52.9c12.5,7.1,26.7,11.5,42,11.5c23.7,0,45.2-9.8,60.7-25.5l72.8,55.7c-3.4,7-5.5,14.8-5.5,23.1
			c0,29.4,23.9,53.3,53.3,53.3s53.3-23.9,53.3-53.3S478.6,347.1,449.2,347.1z M427.9,112.4c17.6,0,32,14.4,32,32s-14.4,32-32,32
			s-32-14.4-32-32S410.2,112.4,427.9,112.4z M86.6,283.1c-17.6,0-32-14.4-32-32s14.4-32,32-32s32,14.4,32,32S104.2,283.1,86.6,283.1
			z M139.9,475.1c-23.5,0-42.7-19.1-42.7-42.7s19.1-42.7,42.7-42.7s42.7,19.1,42.7,42.7S163.4,475.1,139.9,475.1z M203.9,133.8
			c-23.5,0-42.7-19.1-42.7-42.7s19.1-42.7,42.7-42.7s42.7,19.1,42.7,42.7S227.4,133.8,203.9,133.8z M267.9,325.8
			c-35.3,0-64-28.7-64-64s28.7-64,64-64s64,28.7,64,64S303.2,325.8,267.9,325.8z M449.2,432.4c-17.6,0-32-14.4-32-32s14.4-32,32-32
			s32,14.4,32,32S466.9,432.4,449.2,432.4z"/>
	</g>
</g>
</svg>
