<?xml version="1.0"?>
<svg xmlns="http://www.w3.org/2000/svg" xmlns:xlink="http://www.w3.org/1999/xlink" xmlns:svgjs="http://svgjs.com/svgjs" version="1.1" width="512" height="512" x="0" y="0" viewBox="0 0 512 512" style="enable-background:new 0 0 512 512" xml:space="preserve" class=""><g>
<path xmlns="http://www.w3.org/2000/svg" d="M503.467,0h-204.8c-4.719,0-8.533,3.823-8.533,8.533v204.8c0,4.71,3.814,8.533,8.533,8.533h204.8  c4.719,0,8.533-3.823,8.533-8.533V8.533C512,3.823,508.186,0,503.467,0z M494.933,204.8H307.2V17.067h187.733V204.8z" fill="#000000" data-original="#000000" style="" class=""/>
<path xmlns="http://www.w3.org/2000/svg" d="M503.467,290.133h-204.8c-4.719,0-8.533,3.823-8.533,8.533v204.8c0,4.71,3.814,8.533,8.533,8.533h204.8  c4.719,0,8.533-3.823,8.533-8.533v-204.8C512,293.956,508.186,290.133,503.467,290.133z M494.933,494.933H307.2V307.2h187.733  V494.933z" fill="#000000" data-original="#000000" style="" class=""/>
<path xmlns="http://www.w3.org/2000/svg" d="M213.333,290.133H8.533c-4.719,0-8.533,3.823-8.533,8.533v204.8C0,508.177,3.814,512,8.533,512h204.8  c4.719,0,8.533-3.823,8.533-8.533v-204.8C221.867,293.956,218.052,290.133,213.333,290.133z M204.8,494.933H17.067V307.2H204.8  V494.933z" fill="#000000" data-original="#000000" style="" class=""/>
<path xmlns="http://www.w3.org/2000/svg" d="M25.6,204.8h170.667c4.719,0,8.533-3.823,8.533-8.533V25.6c0-4.71-3.814-8.533-8.533-8.533H25.6  c-4.719,0-8.533,3.823-8.533,8.533v170.667C17.067,200.977,20.881,204.8,25.6,204.8z M34.133,34.133h153.6v153.6h-153.6V34.133z" fill="#000000" data-original="#000000" style="" class=""/>
<g xmlns="http://www.w3.org/2000/svg">
	<rect x="307.2" y="17.067" style="" width="187.733" height="187.733" fill="#5c8dbc" data-original="#2b339b" class=""/>
	<rect x="307.2" y="307.2" style="" width="187.733" height="187.733" fill="#5c8dbc" data-original="#2b339b" class=""/>
	<rect x="17.067" y="307.2" style="" width="187.733" height="187.733" fill="#5c8dbc" data-original="#2b339b" class=""/>
</g>
<path xmlns="http://www.w3.org/2000/svg" d="M187.733,187.733h-153.6v-153.6h153.6V187.733z" fill="#000000" data-original="#000000" style="" class=""/>
<rect xmlns="http://www.w3.org/2000/svg" x="34.133" y="34.133" style="" width="153.6" height="153.6" fill="#ffffff" data-original="#cc004e" class=""/>
<g xmlns="http://www.w3.org/2000/svg">
	<rect x="460.8" y="17.067" style="" width="34.133" height="187.733" fill="#1a4674" data-original="#1e2280" class=""/>
	<rect x="460.8" y="307.2" style="" width="34.133" height="187.733" fill="#1a4674" data-original="#1e2280" class=""/>
	<rect x="170.667" y="307.2" style="" width="34.133" height="187.733" fill="#1a4674" data-original="#1e2280" class=""/>
</g>
<rect xmlns="http://www.w3.org/2000/svg" x="153.6" y="34.133" style="" width="34.133" height="153.6" fill="#d7d7d7" data-original="#9b0045" class=""/>
<g xmlns="http://www.w3.org/2000/svg">
</g>
<g xmlns="http://www.w3.org/2000/svg">
</g>
<g xmlns="http://www.w3.org/2000/svg">
</g>
<g xmlns="http://www.w3.org/2000/svg">
</g>
<g xmlns="http://www.w3.org/2000/svg">
</g>
<g xmlns="http://www.w3.org/2000/svg">
</g>
<g xmlns="http://www.w3.org/2000/svg">
</g>
<g xmlns="http://www.w3.org/2000/svg">
</g>
<g xmlns="http://www.w3.org/2000/svg">
</g>
<g xmlns="http://www.w3.org/2000/svg">
</g>
<g xmlns="http://www.w3.org/2000/svg">
</g>
<g xmlns="http://www.w3.org/2000/svg">
</g>
<g xmlns="http://www.w3.org/2000/svg">
</g>
<g xmlns="http://www.w3.org/2000/svg">
</g>
<g xmlns="http://www.w3.org/2000/svg">
</g>
</g></svg>
