<?xml version="1.0"?>
<svg xmlns="http://www.w3.org/2000/svg" xmlns:xlink="http://www.w3.org/1999/xlink" xmlns:svgjs="http://svgjs.com/svgjs" version="1.1" width="512" height="512" x="0" y="0" viewBox="0 0 480 480" style="enable-background:new 0 0 512 512" xml:space="preserve" class=""><g><path xmlns="http://www.w3.org/2000/svg" d="m337.285156 159.03125v-.007812l-.007812.015624zm0 0" fill="#78b9eb" data-original="#78b9eb" style="" class=""/><path xmlns="http://www.w3.org/2000/svg" d="m128 184h176v48h-176zm0 0" fill="#78b9eb" data-original="#78b9eb" style="" class=""/><g xmlns="http://www.w3.org/2000/svg" fill="#1a6fb0"><path d="m472 0h-320c-4.421875 0-8 3.582031-8 8v80c0 4.417969 3.578125 8 8 8h203.015625l-20.800781 49.550781c-49.5625-43.375-119.921875-53.730469-179.878906-26.480469-59.960938 27.25-98.421876 87.070313-98.335938 152.929688 0 4 .148438 8.128906.453125 12.230469l-54.109375 54.113281c-2.2890625 2.289062-2.972656 5.730469-1.734375 8.71875s4.152344 4.9375 7.390625 4.9375h48v16c.042969 39.746094 32.253906 71.957031 72 72h80v32c0 4.417969 3.578125 8 8 8h112c4.417969 0 8-3.582031 8-8v-74.9375c33.289062-29.664062 53.363281-71.386719 55.769531-115.914062 2.402344-44.527344-13.066406-88.167969-42.972656-121.246094l77.128906-63.902344h46.074219c4.417969 0 8-3.582031 8-8v-80c0-4.417969-3.582031-8-8-8zm-149.203125 387.367188c-1.773437 1.519531-2.796875 3.738281-2.796875 6.074218v70.558594h-96v-32.40625c.003906-4.269531-3.339844-7.789062-7.601562-8l-2.800782-.105469c-1.597656-.054687-3.199218-.105469-4.800781-.265625-1.472656-.132812-2.957031.144532-4.285156.800782h-76.511719c-30.914062-.039063-55.960938-25.089844-56-56v-24.023438c0-4.417969-3.582031-8-8-8h-36.691406l40.691406-40.648438c1.050781-.457031 2-1.132812 2.773438-1.984374 1.519531-1.671876 2.253906-3.910157 2.03125-6.160157-.511719-5.101562-.796876-10.222656-.796876-15.199219-.074218-70.285156 48.050782-131.453124 116.378907-147.925781 68.332031-16.46875 139.039062 16.058594 171 78.65625 31.957031 62.601563 16.828125 138.949219-36.589844 184.628907zm141.203125-307.367188h-40c-.0625.007812-.125.023438-.1875.039062-2.121094-.214843-4.238281.429688-5.878906 1.792969l-60.710938 50.296875 16-38.167968c2.539063-2.164063 3.449219-5.6875 2.28125-8.8125-1.167968-3.125-4.167968-5.183594-7.503906-5.148438h-208v-64h304zm0 0" fill="#1a4674" data-original="#1a6fb0" style="" class=""/><path d="m304 176h-176c-4.421875 0-8 3.582031-8 8v176c0 4.417969 3.578125 8 8 8h176c4.417969 0 8-3.582031 8-8v-176c0-4.417969-3.582031-8-8-8zm-8 16v32h-160v-32zm-160 160v-112h160v112zm0 0" fill="#1a4674" data-original="#1a6fb0" style="" class=""/><path d="m144 200h16v16h-16zm0 0" fill="#1a4674" data-original="#1a6fb0" style="" class=""/><path d="m168 200h16v16h-16zm0 0" fill="#1a4674" data-original="#1a6fb0" style="" class=""/><path d="m192 200h16v16h-16zm0 0" fill="#1a4674" data-original="#1a6fb0" style="" class=""/><path d="m232 56h-8v-16h8v-16h-32v16h8v16h-8v16h32zm0 0" fill="#1a4674" data-original="#1a6fb0" style="" class=""/><path d="m264 64h24c4.417969 0 8-3.582031 8-8v-32h-48v48h16zm16-24v8h-16v-8zm0 0" fill="#1a4674" data-original="#1a6fb0" style="" class=""/><path d="m328 72h8c3.273438 0 6.214844-1.992188 7.429688-5.03125l16-40-14.863282-5.9375-12.566406 31.433594-12.570312-31.433594-14.863282 5.9375 16 40c1.214844 3.039062 4.160156 5.03125 7.433594 5.03125zm0 0" fill="#1a4674" data-original="#1a6fb0" style="" class=""/><path d="m368 64h24v8h16v-8h8v-16h-8v-24h-16l-6.402344-4.800781-24 32c-1.816406 2.425781-2.109375 5.667969-.753906 8.378906s4.125 4.421875 7.15625 4.421875zm24-26.671875v10.671875h-8zm0 0" fill="#1a4674" data-original="#1a6fb0" style="" class=""/></g></g></svg>
