<?xml version="1.0" encoding="utf-8"?>
<!-- Generator: Adobe Illustrator 25.2.0, SVG Export Plug-In . SVG Version: 6.00 Build 0)  -->
<svg version="1.1" id="Layer_1" xmlns="http://www.w3.org/2000/svg" xmlns:xlink="http://www.w3.org/1999/xlink" x="0px" y="0px"
	 viewBox="0 0 1080 1080" style="enable-background:new 0 0 1080 1080;" xml:space="preserve">
<style type="text/css">
	.st0{fill:#FFBB85;stroke:#231F20;stroke-width:16;stroke-miterlimit:10;}
	.st1{fill:#538BC1;stroke:#231F20;stroke-width:17;stroke-miterlimit:10;}
	.st2{fill:#F5A86C;}
	.st3{fill:#355977;}
	.st4{fill:none;stroke:#0F4378;stroke-width:6;stroke-miterlimit:10;}
	.st5{fill:#0F4378;}
	.st6{fill:#1B4EA1;}
	.st7{fill:#9E9E9E;}
	.st8{fill:#CECECE;}
	.st9{fill:#282828;}
	.st10{fill:#707070;}
	.st11{fill:#FAB400;}
	.st12{fill:#DC9600;}
	.st13{fill:#D2AA82;}
	.st14{fill:#707789;}
	.st15{fill:#525763;}
	.st16{fill:#F0F0F0;}
	.st17{fill:#CCEFFF;}
	.st18{fill:#949DB2;}
	.st19{fill:#FFFFFF;}
	.st20{fill:#2A65A0;}
	.st21{fill:#D1D3D4;}
	.st22{fill:#538BC1;}
	.st23{fill:#EFEDEF;}
	.st24{fill:#7F8B9A;}
	.st25{fill:#A8B9CC;}
	.st26{fill:#F2F2F2;}
	.st27{fill-rule:evenodd;clip-rule:evenodd;fill:#538BC1;}
	.st28{fill-rule:evenodd;clip-rule:evenodd;fill:#235587;}
	.st29{fill:#8AC9FE;}
	.st30{fill:#F7C75C;}
	.st31{fill:#9FABBF;}
	.st32{fill:#F3F3F3;}
	.st33{fill:#E4E4E4;}
	.st34{fill:#F5F5F5;}
	.st35{fill:#5D9CEC;}
	.st36{fill:#E6E9ED;}
	.st37{fill:#87BCF4;}
	.st38{fill:#48CFAD;}
	.st39{fill:#A0D468;}
	.st40{fill:#CCD1D9;}
	.st41{fill:#F6BB42;}
	.st42{fill:#FFCE54;}
	.st43{fill:#4A89DC;}
	.st44{fill:#AAB2BD;}
	.st45{fill:#1C4466;}
	.st46{fill:#0F4378;stroke:#0F4378;stroke-miterlimit:10;}
	.st47{fill:#E6F9FF;}
	.st48{fill:#B8CBD9;}
	.st49{fill:#E8EFF4;}
	.st50{fill:#0A2D49;}
	.st51{fill:#838587;}
	.st52{fill:#666768;}
	.st53{fill:#EDF5FF;}
	.st54{fill:#D5E8FE;}
	.st55{fill:#E2E2E2;}
	.st56{fill:#58595B;}
	.st57{fill:none;stroke:#0F4378;stroke-miterlimit:10;}
	.st58{fill:#092F4F;stroke:#0F4378;stroke-miterlimit:10;}
	.st59{opacity:0.49;}
	.st60{fill:#CE8F02;}
	.st61{fill:#0B3456;stroke:#0F4378;stroke-miterlimit:10;}
	.st62{fill:none;stroke:#0F4378;stroke-width:12;stroke-miterlimit:10;}
	.st63{fill:#538BC1;stroke:#0F4378;stroke-width:12;stroke-miterlimit:10;}
	.st64{fill:#FAB400;stroke:#0F4378;stroke-width:12;stroke-miterlimit:10;}
	.st65{fill:#FF321D;stroke:#0F4378;stroke-width:12;stroke-miterlimit:10;}
	.st66{fill:#538BC1;stroke:#231F20;stroke-width:5;stroke-miterlimit:10;}
	.st67{fill:#CCEFFF;stroke:#231F20;stroke-width:5;stroke-miterlimit:10;}
	.st68{fill:none;stroke:#231F20;stroke-width:5;stroke-miterlimit:10;}
	.st69{fill:#636363;}
	.st70{fill:none;stroke:#0F4378;stroke-width:3;stroke-miterlimit:10;}
	.st71{fill:#235FB7;}
	.st72{fill:#235FB7;stroke:#231F20;stroke-width:6;stroke-miterlimit:10;}
	.st73{fill:none;stroke:#231F20;stroke-width:6;stroke-miterlimit:10;}
	.st74{fill:#235FB7;stroke:#58595B;stroke-width:6;stroke-miterlimit:10;}
	.st75{fill:none;stroke:#58595B;stroke-width:6;stroke-miterlimit:10;}
	.st76{fill:none;stroke:#0F4378;stroke-width:23;stroke-miterlimit:10;}
	.st77{fill:none;stroke:#0F4378;stroke-width:10;stroke-miterlimit:10;}
	.st78{fill:none;stroke:#0F4378;stroke-width:24;stroke-miterlimit:10;}
	.st79{fill:none;stroke:#0F4378;stroke-width:15;stroke-miterlimit:10;}
	.st80{fill:none;stroke:#0F4378;stroke-width:6;stroke-miterlimit:10;stroke-dasharray:12.0806,12.0806;}
	.st81{fill:none;stroke:#0F4378;stroke-width:6;stroke-miterlimit:10;stroke-dasharray:12.0738,12.0738;}
	.st82{fill:none;stroke:#0F4378;stroke-width:21;stroke-miterlimit:10;}
	.st83{fill:none;stroke:#0F4378;stroke-width:5;stroke-miterlimit:10;}
	.st84{fill:#70B6EF;}
	.st85{fill:none;stroke:#74A5CE;stroke-width:18;stroke-miterlimit:10;}
	.st86{fill:#74A5CE;}
	.st87{fill:none;stroke:#0F4378;stroke-width:18;stroke-miterlimit:10;}
	.st88{fill:#F0C419;}
	.st89{fill:#EDF4FC;}
	.st90{fill:#3A6587;}
	.st91{fill:#133970;}
	.st92{fill:#B3D5E0;}
	.st93{fill:#3D6A8E;}
	.st94{fill:#2488FF;}
	.st95{fill:#ACABB1;}
	.st96{fill:#898890;}
	.st97{fill:#0C3354;stroke:#0F4378;stroke-miterlimit:10;}
	.st98{fill:#538BC1;stroke:#231F20;stroke-width:8;stroke-miterlimit:10;}
	.st99{fill:none;stroke:#231F20;stroke-width:3;stroke-miterlimit:10;}
	.st100{fill:#231F20;}
	.st101{fill:#416D91;}
	.st102{fill:#E0E0E0;}
	.st103{fill:#C0C0C0;}
	.st104{fill:#0D385B;stroke:#0F4378;stroke-miterlimit:10;}
	.st105{fill:#538BC1;stroke:#0F4378;stroke-width:6;stroke-miterlimit:10;}
	.st106{fill:none;stroke:#0F4378;stroke-width:4;stroke-miterlimit:10;}
	.st107{fill:none;stroke:#0F4378;stroke-width:2;stroke-miterlimit:10;}
	.st108{fill:#FFFFFF;stroke:#0F4378;stroke-width:6;stroke-miterlimit:10;}
	.st109{fill:#538BC1;stroke:#0F4378;stroke-width:2;stroke-miterlimit:10;}
	.st110{fill:#0C3251;}
	.st111{fill:#231F20;stroke:#A7A9AC;stroke-miterlimit:10;}
	.st112{fill:#0F4378;stroke:#0F4378;stroke-width:4;stroke-miterlimit:10;}
	.st113{fill:#0C3251;stroke:#0F4378;stroke-width:3;stroke-miterlimit:10;}
	.st114{fill:#538BC1;stroke:#0F4378;stroke-width:3;stroke-miterlimit:10;}
	.st115{fill:none;stroke:#FFFFFF;stroke-width:0.5;stroke-miterlimit:10;}
	.st116{fill:#FFFFFF;stroke:#0F4378;stroke-width:2;stroke-miterlimit:10;}
	.st117{fill:#FAB400;stroke:#0F4378;stroke-width:6;stroke-miterlimit:10;}
	.st118{fill:none;stroke:#A7A9AC;stroke-miterlimit:10;}
	.st119{fill:#A7A9AC;}
	.st120{fill:none;stroke:#BABA3C;stroke-width:2;stroke-miterlimit:10;}
	.st121{fill:none;stroke:#494949;stroke-width:2;stroke-miterlimit:10;}
	.st122{fill:none;stroke:#58595B;stroke-width:3;stroke-miterlimit:10;}
	.st123{fill:none;stroke:#FF0000;stroke-width:2;stroke-miterlimit:10;}
	.st124{fill:none;stroke:#EFDB22;stroke-width:6;stroke-miterlimit:10;}
	.st125{fill:none;stroke:#4D5160;stroke-miterlimit:10;}
	.st126{fill:#4D5160;}
	.st127{opacity:0.6;}
	.st128{fill:none;stroke:#0F4378;stroke-miterlimit:10;stroke-dasharray:11.764,11.764;}
	.st129{fill:none;stroke:#0F4378;stroke-miterlimit:10;stroke-dasharray:11.9302,11.9302;}
	.st130{fill:none;stroke:#0F4378;stroke-miterlimit:10;stroke-dasharray:12.1802,12.1802;}
	.st131{fill:#538BC1;stroke:#0F4378;stroke-width:4;stroke-miterlimit:10;}
</style>
<g>
	<path class="st46" d="M975.86,49.01H104.31c-25.74,0-46.69,20.95-46.69,46.69v622.54c0,25.74,20.95,46.69,46.69,46.69h86.94
		L81.52,874.66c-15.42,15.42-23.91,35.9-23.91,57.69c0,44.99,36.61,81.6,81.6,81.6c21.79,0,42.29-8.48,57.69-23.91L344.2,842.75
		l-15.56-15.56l40.5-40.5l-22.01-22.01l-40.5,40.5l-40.25-40.25l40.5-40.5l-22.01-22.01l-31.38,31.38h-18.24l-6.44-6.44l-6.44,6.44
		H104.31c-8.58,0-15.56-6.99-15.56-15.56v-513.6h902.68v513.6c0,8.58-6.99,15.56-15.56,15.56H630.18v31.13h345.68
		c25.74,0,46.69-20.95,46.69-46.69V95.7C1022.55,69.96,1001.6,49.01,975.86,49.01L975.86,49.01z M174.9,968.04
		c-9.54,9.54-22.21,14.79-35.69,14.79c-27.83,0-50.47-22.64-50.47-50.47c0-13.48,5.24-26.15,14.79-35.69l125.29-125.29l71.37,71.37
		L174.9,968.04z M88.74,173.52V95.7c0-8.58,6.99-15.56,15.56-15.56h871.56c8.58,0,15.56,6.99,15.56,15.56v77.82H88.74z"/>
	<g>
		<path class="st98" d="M477.83,827.19c-128.73,0-233.45-104.73-233.45-233.45s104.73-233.45,233.45-233.45
			s233.45,104.73,233.45,233.45S606.56,827.19,477.83,827.19z M477.83,438.1c-85.82,0-155.63,69.82-155.63,155.63
			s69.82,155.63,155.63,155.63s155.63-69.82,155.63-155.63S563.65,438.1,477.83,438.1z"/>
	</g>
	<g>
		<path class="st46" d="M477.83,764.93c-94.39,0-171.2-76.81-171.2-171.2s76.81-171.2,171.2-171.2s171.2,76.81,171.2,171.2
			S572.22,764.93,477.83,764.93z M477.83,453.66c-77.23,0-140.07,62.85-140.07,140.07s62.85,140.07,140.07,140.07
			S617.9,670.96,617.9,593.74S555.06,453.66,477.83,453.66z"/>
	</g>
	<g>
		<path class="st46" d="M275.51,142.4h-31.13v-31.13h31.13V142.4z M213.25,142.4h-31.13v-31.13h31.13V142.4z M151,142.4h-31.13
			v-31.13H151V142.4z"/>
	</g>
	<g>
		<path class="st46" d="M960.3,702.68H742.41V484.79H960.3V702.68z M773.54,671.55h155.63V515.92H773.54V671.55z"/>
	</g>
	<g>
		<path class="st46" d="M835.79,646.87l-42.13-42.13l22.01-22.01l20.12,20.12l66.81-66.81l22.01,22.01L835.79,646.87z"/>
	</g>
	<path class="st98" d="M742.41,251.34H960.3v202.33H742.41V251.34z"/>
	<path class="st98" d="M119.87,235.78h357.96v77.82H275.51V438.1H119.87V235.78z"/>
	<g>
		<path class="st46" d="M742.41,235.78H960.3v31.13H742.41V235.78z"/>
	</g>
	<g>
		<path class="st46" d="M742.41,298.03H960.3v31.13H742.41V298.03z"/>
	</g>
	<g>
		<path class="st46" d="M742.41,360.28H960.3v31.13H742.41V360.28z"/>
	</g>
	<g>
		<path class="st46" d="M960.3,453.66h-31.13v-31.13h31.13V453.66z M898.05,453.66h-31.13v-31.13h31.13V453.66z M835.79,453.66
			h-31.13v-31.13h31.13V453.66z M773.54,453.66h-31.13v-31.13h31.13V453.66z"/>
	</g>
	<g>
		<path class="st46" d="M119.87,235.78H151v31.13h-31.13V235.78z"/>
	</g>
	<g>
		<path class="st46" d="M182.12,235.78h295.71v31.13H182.12V235.78z"/>
	</g>
	<g>
		<path class="st46" d="M119.87,298.03h357.96v31.13H119.87V298.03z"/>
	</g>
	<g>
		<path class="st46" d="M119.87,360.28h155.63v31.13H119.87V360.28z"/>
	</g>
	<g>
		<path class="st46" d="M119.87,422.54h155.63v31.13H119.87V422.54z"/>
	</g>
	<g>
		<path class="st46" d="M586.78,609.3h-31.13v-31.13h31.13V609.3z M524.52,609.3h-31.13v-31.13h31.13V609.3z M462.27,609.3h-31.13
			v-31.13h31.13V609.3z M400.01,609.3h-31.13v-31.13h31.13V609.3z"/>
	</g>
</g>
</svg>
